<!--?xml version="1.0" standalone="no"?-->
              <svg id="sw-js-blob-svg" viewBox="0 0 100 100" xmlns="http://www.w3.org/2000/svg" version="1.1">
                    <defs> 
                        <linearGradient id="sw-gradient" x1="0" x2="1" y1="1" y2="0">
                            <stop id="stop1" stop-color="rgba(34, 123, 249, 1)" offset="0%"></stop>
                            <stop id="stop2" stop-color="rgba(0, 255, 173, 1)" offset="100%"></stop>
                        </linearGradient>
                    </defs>
                <path fill="url(#sw-gradient)" d="M18.4,-30.8C25.3,-27.9,33.4,-25.9,36.7,-20.9C40,-15.9,38.6,-8,37.4,-0.7C36.2,6.5,35.1,13.1,33,20.2C30.9,27.4,27.9,35.2,22.2,37.7C16.6,40.2,8.3,37.3,0.8,36C-6.7,34.7,-13.5,34.9,-20,32.9C-26.5,30.9,-32.8,26.8,-35.5,20.9C-38.1,15.1,-37,7.5,-35.5,0.9C-34,-5.8,-32,-11.6,-29.8,-18.1C-27.5,-24.5,-25,-31.7,-19.9,-35.6C-14.9,-39.5,-7.5,-40.2,-0.8,-38.7C5.8,-37.3,11.5,-33.6,18.4,-30.8Z" width="100%" height="100%" transform="translate(50 50)" stroke-width="0" style="transition: all 0.3s ease 0s;" stroke="url(#sw-gradient)"></path>
              </svg>