<?xml version="1.0" encoding="utf-8"?>
<svg width="50.229736px" height="50.229736px" viewBox="0 0 50.229736 50.229736" version="1.1" xmlns:xlink="http://www.w3.org/1999/xlink" xmlns="http://www.w3.org/2000/svg">
  <g id="Oval-2" fill-opacity="1">
    <path d="M50.2297 0L50.2297 0L50.2297 50.2297L0 50.2297L0 0L50.2297 0Z" id="Oval-2" fill="none" stroke="none" />
    <path d="M0 25.1149C0 11.2443 11.2443 0 25.1149 0C38.9854 0 50.2297 11.2443 50.2297 25.1149C50.2297 38.9854 38.9854 50.2297 25.1149 50.2297C11.2443 50.2297 0 38.9854 0 25.1149Z" id="Oval" fill="#0040FF" fill-rule="evenodd" stroke="none" />
    <path d="M12 25.1554C12 17.8899 17.8899 12 25.1554 12C32.4209 12 38.3108 17.8899 38.3108 25.1554C38.3108 32.4209 32.4209 38.3108 25.1554 38.3108C17.8899 38.3108 12 32.4209 12 25.1554Z" id="Oval-2" fill="#FFFFFF" fill-rule="evenodd" stroke="none" />
  </g>
</svg>