<?xml version="1.0" encoding="utf-8"?>
<svg width="33px" height="33px" viewBox="0 0 33 33" version="1.1" xmlns:xlink="http://www.w3.org/1999/xlink" xmlns="http://www.w3.org/2000/svg">
  <g id="Oval-2" fill-opacity="1" transform="translate(6 4)">
    <path d="M21 0L21 0L21 21L0 21L0 0L21 0Z" id="Oval-2" fill="none" stroke="none" />
    <path d="M0 10.5C0 4.70101 4.70101 0 10.5 0C16.299 0 21 4.70101 21 10.5C21 16.299 16.299 21 10.5 21C4.70101 21 0 16.299 0 10.5Z" id="Oval" fill="#6424F7" fill-rule="evenodd" stroke="none" />
    <path d="M5 10.5C5 7.46243 7.46243 5 10.5 5C13.5376 5 16 7.46243 16 10.5C16 13.5376 13.5376 16 10.5 16C7.46243 16 5 13.5376 5 10.5Z" id="Oval-2" fill="#FFFFFF" fill-rule="evenodd" stroke="none" />
  </g>
</svg>