<?xml version="1.0" encoding="utf-8"?>
<svg width="76px" height="64.411194px" viewBox="0 0 76 64.411194" version="1.1" xmlns:xlink="http://www.w3.org/1999/xlink" xmlns="http://www.w3.org/2000/svg">
  <defs>
    <linearGradient gradientUnits="objectBoundingBox" x1="4.4504802E-07" y1="1.0000036" x2="0.99999917" y2="1.5404112E-05" id="gradient_1">
      <stop offset="19.732893%" stop-color="#8100FA" />
      <stop offset="76.88418%" stop-color="#FA77CC" />
    </linearGradient>
    <filter filterUnits="userSpaceOnUse" color-interpolation-filters="sRGB" id="filter_1">
      <feFlood flood-opacity="0" result="BackgroundImageFix" />
      <feColorMatrix in="SourceAlpha" type="matrix" values="0 0 0 0 0 0 0 0 0 0 0 0 0 0 0 0 0 0 128 0" />
      <feOffset dx="0" dy="2" />
      <feGaussianBlur stdDeviation="1" />
      <feColorMatrix type="matrix" values="0 0 0 0 0 0 0 0 0 0 0 0 0 0 0 0 0 0 0.49803922 0" />
      <feBlend mode="normal" in2="BackgroundImageFix" result="effect0_dropShadow" />
      <feBlend mode="normal" in="SourceGraphic" in2="effect0_dropShadow" result="shape" />
    </filter>
  </defs>
  <g id="Shape-4" fill-opacity="1" transform="translate(3 1)">
    <path d="M-737 -381L-737 -381L-737 -322.589L-807 -322.589L-807 -381L-737 -381Z" id="Shape-4" fill="none" stroke="none" />
    <path d="M26.6055 0L43.3945 0C46.2246 0 48.7266 1.72365 49.6152 4.27914L51.0371 8.34445L61.25 8.34445C66.0762 8.34445 70 12.0864 70 16.6889L70 50.0667C70 54.6692 66.0762 58.4112 61.25 58.4112L8.75 58.4112C3.91699 58.4112 0 54.6692 0 50.0667L0 16.6889C0 12.0864 3.91699 8.34445 8.75 8.34445L18.9629 8.34445L20.3848 4.27914C21.2734 1.72365 23.7754 0 26.6055 0L26.6055 0L26.6055 0ZM35 45.8944C42.2461 45.8944 48.125 40.2879 48.125 33.3777C48.125 26.3501 42.2461 20.861 35 20.861C27.6309 20.861 21.875 26.3501 21.875 33.3777C21.875 40.2879 27.6309 45.8944 35 45.8944L35 45.8944Z" id="Shape" fill="url(#gradient_1)" fill-rule="evenodd" stroke="none" filter="url(#filter_1)" />
  </g>
</svg>