<?xml version="1.0" encoding="utf-8"?>
<svg width="963.7473px" height="964.16406px" viewBox="0 0 963.7473 964.16406" version="1.1" xmlns:xlink="http://www.w3.org/1999/xlink" xmlns="http://www.w3.org/2000/svg">
  <defs>
    <linearGradient gradientUnits="objectBoundingBox" x1="0" y1="0" x2="1" y2="1" id="gradient_1">
      <stop offset="19.732893%" stop-color="#00FF9D" />
      <stop offset="76.88418%" stop-color="#748CFF" />
    </linearGradient>
    <path d="M539.884 57.5471L908.175 438.922Q909.539 440.335 910.832 441.813Q912.125 443.29 913.345 444.83Q914.564 446.37 915.706 447.967Q916.848 449.565 917.911 451.217Q918.973 452.868 919.953 454.57Q920.933 456.272 921.829 458.02Q922.724 459.768 923.533 461.557Q924.341 463.347 925.061 465.174Q925.781 467.002 926.41 468.862Q927.039 470.722 927.576 472.611Q928.114 474.5 928.557 476.413Q929.001 478.326 929.351 480.259Q929.7 482.192 929.954 484.139Q930.209 486.086 930.367 488.044Q930.525 490.001 930.587 491.964Q930.65 493.927 930.615 495.891Q930.581 497.854 930.45 499.814Q930.32 501.773 930.093 503.724Q929.867 505.675 929.545 507.612Q929.223 509.55 928.806 511.469Q928.389 513.388 927.879 515.284Q927.369 517.181 926.766 519.05Q926.163 520.919 925.469 522.756Q924.775 524.594 923.992 526.394Q923.209 528.195 922.339 529.956Q921.468 531.716 920.512 533.432Q919.556 535.147 918.518 536.814Q917.479 538.481 916.359 540.094Q915.24 541.708 914.043 543.265Q912.845 544.821 911.573 546.318Q910.301 547.814 908.957 549.246Q907.613 550.677 906.2 552.042L536.983 908.591Q535.57 909.956 534.092 911.249Q532.614 912.542 531.075 913.761Q529.535 914.98 527.937 916.123Q526.34 917.265 524.688 918.327Q523.036 919.39 521.334 920.37Q519.633 921.35 517.885 922.245Q516.137 923.141 514.347 923.949Q512.557 924.758 510.73 925.478Q508.903 926.197 507.043 926.827Q505.182 927.456 503.293 927.993Q501.404 928.53 499.491 928.974Q497.578 929.418 495.646 929.767Q493.713 930.117 491.766 930.371Q489.818 930.625 487.861 930.784Q485.903 930.942 483.94 931.004Q481.978 931.066 480.014 931.032Q478.05 930.998 476.091 930.867Q474.131 930.737 472.181 930.51Q470.23 930.283 468.292 929.961Q466.355 929.639 464.436 929.223Q462.517 928.806 460.62 928.296Q458.724 927.785 456.855 927.183Q454.986 926.58 453.149 925.886Q451.311 925.192 449.51 924.409Q447.709 923.626 445.949 922.755Q444.188 921.885 442.473 920.929Q440.757 919.973 439.091 918.934Q437.424 917.895 435.81 916.776Q434.197 915.657 432.64 914.459Q431.083 913.262 429.587 911.99Q428.091 910.718 426.659 909.374Q425.227 908.03 423.863 906.617L55.5728 525.242Q54.2085 523.83 52.9152 522.352Q51.622 520.874 50.4028 519.334Q49.1836 517.794 48.0414 516.197Q46.8992 514.599 45.8368 512.948Q44.7744 511.296 43.7943 509.594Q42.8142 507.892 41.9188 506.144Q41.0234 504.396 40.2148 502.607Q39.4063 500.817 38.6865 498.99Q37.9667 497.162 37.3375 495.302Q36.7082 493.442 36.171 491.553Q35.6338 489.664 35.19 487.751Q34.7461 485.838 34.3966 483.905Q34.0472 481.973 33.7929 480.025Q33.5387 478.078 33.3804 476.12Q33.222 474.163 33.1599 472.2Q33.0978 470.237 33.132 468.273Q33.1663 466.31 33.2969 464.35Q33.4275 462.391 33.6541 460.44Q33.8806 458.489 34.2026 456.552Q34.5247 454.615 34.9414 452.695Q35.358 450.776 35.8684 448.88Q36.3788 446.983 36.9816 445.114Q37.5844 443.245 38.2781 441.408Q38.9719 439.571 39.755 437.77Q40.5381 435.969 41.4086 434.208Q42.2792 432.448 43.235 430.732Q44.1909 429.017 45.2298 427.35Q46.2686 425.684 47.3881 424.07Q48.5075 422.456 49.7047 420.899Q50.9019 419.343 52.1741 417.847Q53.4463 416.35 54.7904 414.919Q56.1344 413.487 57.5471 412.122L426.764 55.5727Q428.177 54.2085 429.655 52.9152Q431.133 51.6219 432.673 50.4027Q434.212 49.1835 435.81 48.0413Q437.407 46.8992 439.059 45.8367Q440.711 44.7743 442.413 43.7942Q444.115 42.8142 445.862 41.9187Q447.61 41.0233 449.4 40.2148Q451.19 39.4062 453.017 38.6865Q454.844 37.9667 456.705 37.3374Q458.565 36.7082 460.454 36.171Q462.343 35.6338 464.256 35.1899Q466.169 34.746 468.102 34.3966Q470.034 34.0471 471.981 33.7929Q473.929 33.5387 475.886 33.3803Q477.844 33.222 479.807 33.1599Q481.77 33.0977 483.733 33.132Q485.697 33.1663 487.656 33.2969Q489.616 33.4274 491.567 33.654Q493.517 33.8806 495.455 34.2026Q497.392 34.5246 499.311 34.9413Q501.23 35.358 503.127 35.8684Q505.023 36.3787 506.892 36.9815Q508.761 37.5843 510.599 38.2781Q512.436 38.9719 514.237 39.755Q516.038 40.5381 517.798 41.4086Q519.559 42.2791 521.274 43.235Q522.99 44.1908 524.657 45.2297Q526.323 46.2686 527.937 47.388Q529.55 48.5074 531.107 49.7047Q532.664 50.9019 534.16 52.1741Q535.656 53.4463 537.088 54.7903Q538.52 56.1344 539.884 57.5471Z" id="path_1" />
    <clipPath id="clip_1">
      <use xlink:href="#path_1" />
    </clipPath>
  </defs>
  <g id="Rectangle">
    <g clip-path="url(#clip_1)">
      <use xlink:href="#path_1" fill="none" stroke="url(#gradient_1)" stroke-width="40" />
    </g>
  </g>
</svg>