<?xml version="1.0" encoding="UTF-8" standalone="no"?>
<!-- Created with Inkscape (http://www.inkscape.org/) -->

<svg
   version="1.1"
   id="svg1"
   width="666.66669"
   height="666.66669"
   viewBox="0 0 666.66669 666.66669"
   sodipodi:docname="skillI.svg"
   inkscape:version="1.3 (0e150ed, 2023-07-21)"
   xmlns:inkscape="http://www.inkscape.org/namespaces/inkscape"
   xmlns:sodipodi="http://sodipodi.sourceforge.net/DTD/sodipodi-0.dtd"
   xmlns="http://www.w3.org/2000/svg"
   xmlns:svg="http://www.w3.org/2000/svg">
  <defs
     id="defs1">
    <clipPath
       clipPathUnits="userSpaceOnUse"
       id="clipPath3">
      <path
         d="M 0,500 H 500 V 0 H 0 Z"
         transform="translate(-416.50781,-253.0806)"
         id="path3" />
    </clipPath>
    <clipPath
       clipPathUnits="userSpaceOnUse"
       id="clipPath5">
      <path
         d="M 0,500 H 500 V 0 H 0 Z"
         transform="translate(-357.07521,-360.77101)"
         id="path5" />
    </clipPath>
    <clipPath
       clipPathUnits="userSpaceOnUse"
       id="clipPath6">
      <path
         d="M 131.038,332.998 H 292.113 V 160.854 H 131.038 Z"
         transform="translate(-292.11331,-160.85351)"
         id="path6" />
    </clipPath>
    <clipPath
       clipPathUnits="userSpaceOnUse"
       id="clipPath8">
      <path
         d="M 0,500 H 500 V 0 H 0 Z"
         transform="matrix(1.3333333,0,0,-1.3333333,0,666.66667)"
         id="path8" />
    </clipPath>
    <clipPath
       clipPathUnits="userSpaceOnUse"
       id="clipPath9">
      <path
         d="M 103.053,281.409 H 224.789 V 144.398 H 103.053 Z"
         transform="translate(-224.78911,-145.50881)"
         id="path9" />
    </clipPath>
    <clipPath
       clipPathUnits="userSpaceOnUse"
       id="clipPath11">
      <path
         d="M 0,500 H 500 V 0 H 0 Z"
         transform="matrix(1.3333333,0,0,-1.3333333,0,666.66667)"
         id="path11" />
    </clipPath>
    <clipPath
       clipPathUnits="userSpaceOnUse"
       id="clipPath12">
      <path
         d="M 330.962,324.67 H 371.57 V 162.874 h -40.608 z"
         transform="translate(-334.72361,-246.41801)"
         id="path12" />
    </clipPath>
    <clipPath
       clipPathUnits="userSpaceOnUse"
       id="clipPath14">
      <path
         d="M 0,500 H 500 V 0 H 0 Z"
         transform="matrix(1.3333333,0,0,-1.3333333,0,666.66667)"
         id="path14" />
    </clipPath>
    <clipPath
       clipPathUnits="userSpaceOnUse"
       id="clipPath15">
      <path
         d="m 365.258,286.607 h 46.135 V 176.459 h -46.135 z"
         transform="translate(-369.01861,-236.15231)"
         id="path15" />
    </clipPath>
    <clipPath
       clipPathUnits="userSpaceOnUse"
       id="clipPath17">
      <path
         d="M 0,500 H 500 V 0 H 0 Z"
         transform="matrix(1.3333333,0,0,-1.3333333,0,666.66667)"
         id="path17" />
    </clipPath>
    <clipPath
       clipPathUnits="userSpaceOnUse"
       id="clipPath18">
      <path
         d="m 398.99,247.576 h 17.057 V 199.732 H 398.99 Z"
         transform="translate(-416.04691,-247.5762)"
         id="path18" />
    </clipPath>
    <clipPath
       clipPathUnits="userSpaceOnUse"
       id="clipPath20">
      <path
         d="M 0,500 H 500 V 0 H 0 Z"
         transform="matrix(1.3333333,0,0,-1.3333333,0,666.66667)"
         id="path20" />
    </clipPath>
    <clipPath
       clipPathUnits="userSpaceOnUse"
       id="clipPath21">
      <path
         d="M 170.72,426.182 H 307.754 V 283.264 H 170.72 Z"
         transform="translate(-307.75391,-336.96731)"
         id="path21" />
    </clipPath>
    <clipPath
       clipPathUnits="userSpaceOnUse"
       id="clipPath23">
      <path
         d="M 0,500 H 500 V 0 H 0 Z"
         transform="matrix(1.3333333,0,0,-1.3333333,0,666.66667)"
         id="path23" />
    </clipPath>
    <clipPath
       clipPathUnits="userSpaceOnUse"
       id="clipPath24">
      <path
         d="m 217.607,425.555 h 49.308 v -62.882 h -49.308 z"
         transform="translate(-266.91501,-363.27541)"
         id="path24" />
    </clipPath>
    <clipPath
       clipPathUnits="userSpaceOnUse"
       id="clipPath26">
      <path
         d="M 0,500 H 500 V 0 H 0 Z"
         transform="matrix(1.3333333,0,0,-1.3333333,0,666.66667)"
         id="path26" />
    </clipPath>
    <clipPath
       clipPathUnits="userSpaceOnUse"
       id="clipPath27">
      <path
         d="m 327.471,428.473 h 22.114 v -71.435 h -22.114 z"
         transform="translate(-349.58501,-357.77051)"
         id="path27" />
    </clipPath>
    <clipPath
       clipPathUnits="userSpaceOnUse"
       id="clipPath29">
      <path
         d="M 0,500 H 500 V 0 H 0 Z"
         transform="matrix(1.3333333,0,0,-1.3333333,0,666.66667)"
         id="path29" />
    </clipPath>
    <clipPath
       clipPathUnits="userSpaceOnUse"
       id="clipPath31">
      <path
         d="M 0,500 H 500 V 0 H 0 Z"
         transform="translate(-344.02731,-51.674804)"
         id="path31" />
    </clipPath>
    <linearGradient
       x1="0"
       y1="0"
       x2="1"
       y2="0"
       gradientUnits="userSpaceOnUse"
       gradientTransform="matrix(2.7564449,26.383118,26.383118,-2.7564449,171.06621,260.95575)"
       spreadMethod="pad"
       id="linearGradient32">
      <stop
         style="stop-color:#0040ff;stop-opacity:1;"
         offset="0"
         id="stop31" />
      <stop
         style="stop-color:#748cff;stop-opacity:1;"
         offset="1"
         id="stop32" />
    </linearGradient>
    <clipPath
       clipPathUnits="userSpaceOnUse"
       id="clipPath34">
      <path
         d="M 0,500 H 500 V 0 H 0 Z"
         transform="translate(-133.0303,-281.59811)"
         id="path34" />
    </clipPath>
    <clipPath
       clipPathUnits="userSpaceOnUse"
       id="clipPath35">
      <path
         d="m 200.639,287.481 h 13.903 v -26.556 h -13.903 z"
         transform="translate(-200.74461,-260.92481)"
         id="path35" />
    </clipPath>
    <clipPath
       clipPathUnits="userSpaceOnUse"
       id="clipPath37">
      <path
         d="M 0,500 H 500 V 0 H 0 Z"
         transform="matrix(1.3333333,0,0,-1.3333333,0,666.66667)"
         id="path37" />
    </clipPath>
    <clipPath
       clipPathUnits="userSpaceOnUse"
       id="clipPath39">
      <path
         d="M 0,500 H 500 V 0 H 0 Z"
         transform="translate(-163.4209,-265.395)"
         id="path39" />
    </clipPath>
    <clipPath
       clipPathUnits="userSpaceOnUse"
       id="clipPath41">
      <path
         d="M 0,500 H 500 V 0 H 0 Z"
         id="path41" />
    </clipPath>
    <clipPath
       clipPathUnits="userSpaceOnUse"
       id="clipPath43">
      <path
         d="M 0,500 H 500 V 0 H 0 Z"
         transform="translate(-138.89451,-296.208)"
         id="path43" />
    </clipPath>
    <clipPath
       clipPathUnits="userSpaceOnUse"
       id="clipPath45">
      <path
         d="M 0,500 H 500 V 0 H 0 Z"
         transform="translate(-151.3477,-286.1421)"
         id="path45" />
    </clipPath>
    <clipPath
       clipPathUnits="userSpaceOnUse"
       id="clipPath47">
      <path
         d="M 0,500 H 500 V 0 H 0 Z"
         transform="translate(-155.521,-281.22021)"
         id="path47" />
    </clipPath>
    <clipPath
       clipPathUnits="userSpaceOnUse"
       id="clipPath49">
      <path
         d="M 0,500 H 500 V 0 H 0 Z"
         transform="translate(-155.521,-276.65481)"
         id="path49" />
    </clipPath>
    <clipPath
       clipPathUnits="userSpaceOnUse"
       id="clipPath51">
      <path
         d="M 0,500 H 500 V 0 H 0 Z"
         transform="translate(-155.521,-272.35991)"
         id="path51" />
    </clipPath>
    <clipPath
       clipPathUnits="userSpaceOnUse"
       id="clipPath53">
      <path
         d="M 0,500 H 500 V 0 H 0 Z"
         transform="translate(-127.32711,-289.14701)"
         id="path53" />
    </clipPath>
    <clipPath
       clipPathUnits="userSpaceOnUse"
       id="clipPath55">
      <path
         d="M 0,500 H 500 V 0 H 0 Z"
         transform="translate(-150.72171,-174.915)"
         id="path55" />
    </clipPath>
    <clipPath
       clipPathUnits="userSpaceOnUse"
       id="clipPath57">
      <path
         d="M 0,500 H 500 V 0 H 0 Z"
         transform="translate(-162.9775,-129.5771)"
         id="path57" />
    </clipPath>
    <clipPath
       clipPathUnits="userSpaceOnUse"
       id="clipPath59">
      <path
         d="M 0,500 H 500 V 0 H 0 Z"
         transform="translate(-176.9116,-154.8447)"
         id="path59" />
    </clipPath>
    <clipPath
       clipPathUnits="userSpaceOnUse"
       id="clipPath61">
      <path
         d="M 0,500 H 500 V 0 H 0 Z"
         transform="translate(-168.9751,-189.4668)"
         id="path61" />
    </clipPath>
    <linearGradient
       x1="0"
       y1="0"
       x2="1"
       y2="0"
       gradientUnits="userSpaceOnUse"
       gradientTransform="matrix(-18.901337,22.051559,22.051559,18.901337,192.15215,217.39931)"
       spreadMethod="pad"
       id="linearGradient62">
      <stop
         style="stop-color:#0040ff;stop-opacity:1;"
         offset="0"
         id="stop61" />
      <stop
         style="stop-color:#748cff;stop-opacity:1;"
         offset="1"
         id="stop62" />
    </linearGradient>
    <clipPath
       clipPathUnits="userSpaceOnUse"
       id="clipPath63">
      <path
         d="m 201.347,257.334 h 20.366 v -28.293 h -20.366 z"
         transform="translate(-202.74121,-254.40381)"
         id="path63" />
    </clipPath>
    <clipPath
       clipPathUnits="userSpaceOnUse"
       id="clipPath65">
      <path
         d="M 0,500 H 500 V 0 H 0 Z"
         transform="matrix(1.3333333,0,0,-1.3333333,0,666.66667)"
         id="path65" />
    </clipPath>
    <clipPath
       clipPathUnits="userSpaceOnUse"
       id="clipPath67">
      <path
         d="M 0,500 H 500 V 0 H 0 Z"
         transform="translate(-157.2832,-200.09771)"
         id="path67" />
    </clipPath>
    <clipPath
       clipPathUnits="userSpaceOnUse"
       id="clipPath69">
      <path
         d="M 0,500 H 500 V 0 H 0 Z"
         transform="translate(-382.22751,-284.001)"
         id="path69" />
    </clipPath>
    <clipPath
       clipPathUnits="userSpaceOnUse"
       id="clipPath71">
      <path
         d="M 0,500 H 500 V 0 H 0 Z"
         transform="translate(-381.22071,-289.66751)"
         id="path71" />
    </clipPath>
    <clipPath
       clipPathUnits="userSpaceOnUse"
       id="clipPath73">
      <path
         d="M 0,500 H 500 V 0 H 0 Z"
         transform="translate(-356.03811,-285.33351)"
         id="path73" />
    </clipPath>
    <linearGradient
       x1="0"
       y1="0"
       x2="1"
       y2="0"
       gradientUnits="userSpaceOnUse"
       gradientTransform="matrix(-2.7564449,24.020451,24.020451,2.7564449,319.15594,261.4758)"
       spreadMethod="pad"
       id="linearGradient74">
      <stop
         style="stop-color:#0040ff;stop-opacity:1;"
         offset="0"
         id="stop73" />
      <stop
         style="stop-color:#748cff;stop-opacity:1;"
         offset="1"
         id="stop74" />
    </linearGradient>
    <clipPath
       clipPathUnits="userSpaceOnUse"
       id="clipPath75">
      <path
         d="m 275.468,287.481 h 13.903 v -26.556 h -13.903 z"
         transform="translate(-289.26661,-260.92481)"
         id="path75" />
    </clipPath>
    <clipPath
       clipPathUnits="userSpaceOnUse"
       id="clipPath77">
      <path
         d="M 0,500 H 500 V 0 H 0 Z"
         transform="matrix(1.3333333,0,0,-1.3333333,0,666.66667)"
         id="path77" />
    </clipPath>
    <clipPath
       clipPathUnits="userSpaceOnUse"
       id="clipPath79">
      <path
         d="M 0,500 H 500 V 0 H 0 Z"
         transform="translate(-351.61721,-298.52691)"
         id="path79" />
    </clipPath>
    <clipPath
       clipPathUnits="userSpaceOnUse"
       id="clipPath81">
      <path
         d="M 0,500 H 500 V 0 H 0 Z"
         transform="translate(-337.07811,-183.3584)"
         id="path81" />
    </clipPath>
    <clipPath
       clipPathUnits="userSpaceOnUse"
       id="clipPath83">
      <path
         d="M 0,500 H 500 V 0 H 0 Z"
         transform="translate(-318.33011,-175.373)"
         id="path83" />
    </clipPath>
    <clipPath
       clipPathUnits="userSpaceOnUse"
       id="clipPath85">
      <path
         d="M 0,500 H 500 V 0 H 0 Z"
         transform="translate(-320.84371,-191.14361)"
         id="path85" />
    </clipPath>
    <linearGradient
       x1="0"
       y1="0"
       x2="1"
       y2="0"
       gradientUnits="userSpaceOnUse"
       gradientTransform="matrix(17.190664,19.876707,19.876707,-17.190664,298.37946,218.07289)"
       spreadMethod="pad"
       id="linearGradient86">
      <stop
         style="stop-color:#748cff;stop-opacity:1;"
         offset="0"
         id="stop85" />
      <stop
         style="stop-color:#0040ff;stop-opacity:1;"
         offset="1"
         id="stop86" />
    </linearGradient>
    <clipPath
       clipPathUnits="userSpaceOnUse"
       id="clipPath87">
      <path
         d="m 268.298,257.334 h 20.366 v -28.293 h -20.366 z"
         transform="translate(-287.26951,-254.40381)"
         id="path87" />
    </clipPath>
    <clipPath
       clipPathUnits="userSpaceOnUse"
       id="clipPath89">
      <path
         d="M 0,500 H 500 V 0 H 0 Z"
         transform="matrix(1.3333333,0,0,-1.3333333,0,666.66667)"
         id="path89" />
    </clipPath>
    <clipPath
       clipPathUnits="userSpaceOnUse"
       id="clipPath91">
      <path
         d="M 0,500 H 500 V 0 H 0 Z"
         transform="translate(-316.87401,-195.24221)"
         id="path91" />
    </clipPath>
    <clipPath
       clipPathUnits="userSpaceOnUse"
       id="clipPath93">
      <path
         d="M 0,500 H 500 V 0 H 0 Z"
         transform="translate(-198.2529,-375.22071)"
         id="path93" />
    </clipPath>
    <clipPath
       clipPathUnits="userSpaceOnUse"
       id="clipPath95">
      <path
         d="M 0,500 H 500 V 0 H 0 Z"
         transform="translate(-195.9663,-367.76321)"
         id="path95" />
    </clipPath>
    <linearGradient
       x1="0"
       y1="0"
       x2="1"
       y2="0"
       gradientUnits="userSpaceOnUse"
       gradientTransform="matrix(15.751114,11.02578,11.02578,-15.751114,184.17271,318.3002)"
       spreadMethod="pad"
       id="linearGradient96">
      <stop
         style="stop-color:#0040ff;stop-opacity:1;"
         offset="0"
         id="stop95" />
      <stop
         style="stop-color:#748cff;stop-opacity:1;"
         offset="1"
         id="stop96" />
    </linearGradient>
    <clipPath
       clipPathUnits="userSpaceOnUse"
       id="clipPath97">
      <path
         d="m 206.155,315.928 h 25.174 v -26.781 h -25.174 z"
         transform="translate(-215.71191,-289.14701)"
         id="path97" />
    </clipPath>
    <clipPath
       clipPathUnits="userSpaceOnUse"
       id="clipPath99">
      <path
         d="M 0,500 H 500 V 0 H 0 Z"
         transform="matrix(1.3333333,0,0,-1.3333333,0,666.66667)"
         id="path99" />
    </clipPath>
    <clipPath
       clipPathUnits="userSpaceOnUse"
       id="clipPath101">
      <path
         d="M 0,500 H 500 V 0 H 0 Z"
         transform="translate(-181.54491,-361.86331)"
         id="path101" />
    </clipPath>
    <clipPath
       clipPathUnits="userSpaceOnUse"
       id="clipPath103">
      <path
         d="M 0,500 H 500 V 0 H 0 Z"
         transform="translate(-201.9565,-411.62451)"
         id="path103" />
    </clipPath>
    <clipPath
       clipPathUnits="userSpaceOnUse"
       id="clipPath105">
      <path
         d="M 0,500 H 500 V 0 H 0 Z"
         transform="translate(-191.1318,-407.81981)"
         id="path105" />
    </clipPath>
    <clipPath
       clipPathUnits="userSpaceOnUse"
       id="clipPath107">
      <path
         d="M 0,500 H 500 V 0 H 0 Z"
         transform="translate(-194.5464,-406.82031)"
         id="path107" />
    </clipPath>
    <clipPath
       clipPathUnits="userSpaceOnUse"
       id="clipPath109">
      <path
         d="M 0,500 H 500 V 0 H 0 Z"
         transform="translate(-193.0996,-395.00631)"
         id="path109" />
    </clipPath>
    <clipPath
       clipPathUnits="userSpaceOnUse"
       id="clipPath111">
      <path
         d="M 0,500 H 500 V 0 H 0 Z"
         transform="translate(-196.12701,-397.32371)"
         id="path111" />
    </clipPath>
    <clipPath
       clipPathUnits="userSpaceOnUse"
       id="clipPath113">
      <path
         d="M 0,500 H 500 V 0 H 0 Z"
         transform="translate(-196.17381,-396.34281)"
         id="path113" />
    </clipPath>
    <clipPath
       clipPathUnits="userSpaceOnUse"
       id="clipPath115">
      <path
         d="M 0,500 H 500 V 0 H 0 Z"
         transform="translate(-182.4312,-412.01461)"
         id="path115" />
    </clipPath>
    <clipPath
       clipPathUnits="userSpaceOnUse"
       id="clipPath117">
      <path
         d="M 0,500 H 500 V 0 H 0 Z"
         transform="translate(-183.14061,-416.15721)"
         id="path117" />
    </clipPath>
    <clipPath
       clipPathUnits="userSpaceOnUse"
       id="clipPath119">
      <path
         d="M 0,500 H 500 V 0 H 0 Z"
         transform="translate(-183.28911,-408.81741)"
         id="path119" />
    </clipPath>
    <clipPath
       clipPathUnits="userSpaceOnUse"
       id="clipPath121">
      <path
         d="M 0,500 H 500 V 0 H 0 Z"
         transform="translate(-185.6382,-419.58941)"
         id="path121" />
    </clipPath>
    <clipPath
       clipPathUnits="userSpaceOnUse"
       id="clipPath123">
      <path
         d="M 0,500 H 500 V 0 H 0 Z"
         transform="translate(-188.4697,-421.76761)"
         id="path123" />
    </clipPath>
    <clipPath
       clipPathUnits="userSpaceOnUse"
       id="clipPath125">
      <path
         d="M 0,500 H 500 V 0 H 0 Z"
         transform="translate(-203.93311,-412.31151)"
         id="path125" />
    </clipPath>
    <clipPath
       clipPathUnits="userSpaceOnUse"
       id="clipPath127">
      <path
         d="M 0,500 H 500 V 0 H 0 Z"
         transform="translate(-203.22361,-416.45361)"
         id="path127" />
    </clipPath>
    <clipPath
       clipPathUnits="userSpaceOnUse"
       id="clipPath129">
      <path
         d="M 0,500 H 500 V 0 H 0 Z"
         transform="translate(-203.0752,-409.11431)"
         id="path129" />
    </clipPath>
    <clipPath
       clipPathUnits="userSpaceOnUse"
       id="clipPath131">
      <path
         d="M 0,500 H 500 V 0 H 0 Z"
         transform="translate(-200.7256,-419.88621)"
         id="path131" />
    </clipPath>
    <clipPath
       clipPathUnits="userSpaceOnUse"
       id="clipPath133">
      <path
         d="M 0,500 H 500 V 0 H 0 Z"
         transform="translate(-197.8945,-422.06451)"
         id="path133" />
    </clipPath>
    <clipPath
       clipPathUnits="userSpaceOnUse"
       id="clipPath135">
      <path
         d="M 0,500 H 500 V 0 H 0 Z"
         transform="translate(-192.69141,-422.75051)"
         id="path135" />
    </clipPath>
    <clipPath
       clipPathUnits="userSpaceOnUse"
       id="clipPath137">
      <path
         d="M 0,500 H 500 V 0 H 0 Z"
         transform="translate(-292.0381,-375.51611)"
         id="path137" />
    </clipPath>
    <clipPath
       clipPathUnits="userSpaceOnUse"
       id="clipPath139">
      <path
         d="M 0,500 H 500 V 0 H 0 Z"
         transform="translate(-294.32521,-368.05811)"
         id="path139" />
    </clipPath>
    <linearGradient
       x1="0"
       y1="0"
       x2="1"
       y2="0"
       gradientUnits="userSpaceOnUse"
       gradientTransform="matrix(-15.554225,9.4506683,9.4506683,15.554225,305.28674,320.04208)"
       spreadMethod="pad"
       id="linearGradient140">
      <stop
         style="stop-color:#0040ff;stop-opacity:1;"
         offset="0"
         id="stop139" />
      <stop
         style="stop-color:#748cff;stop-opacity:1;"
         offset="1"
         id="stop140" />
    </linearGradient>
    <clipPath
       clipPathUnits="userSpaceOnUse"
       id="clipPath141">
      <path
         d="m 258.682,315.928 h 25.174 v -26.781 h -25.174 z"
         transform="translate(-274.2988,-289.14701)"
         id="path141" />
    </clipPath>
    <clipPath
       clipPathUnits="userSpaceOnUse"
       id="clipPath143">
      <path
         d="M 0,500 H 500 V 0 H 0 Z"
         transform="matrix(1.3333333,0,0,-1.3333333,0,666.66667)"
         id="path143" />
    </clipPath>
    <clipPath
       clipPathUnits="userSpaceOnUse"
       id="clipPath145">
      <path
         d="M 0,500 H 500 V 0 H 0 Z"
         transform="translate(-292.501,-368.24021)"
         id="path145" />
    </clipPath>
    <clipPath
       clipPathUnits="userSpaceOnUse"
       id="clipPath147">
      <path
         d="M 0,500 H 500 V 0 H 0 Z"
         transform="translate(-304.21971,-408.62651)"
         id="path147" />
    </clipPath>
    <clipPath
       clipPathUnits="userSpaceOnUse"
       id="clipPath149">
      <path
         d="M 0,500 H 500 V 0 H 0 Z"
         transform="translate(-294.69531,-399.72901)"
         id="path149" />
    </clipPath>
    <clipPath
       clipPathUnits="userSpaceOnUse"
       id="clipPath151">
      <path
         d="M 0,500 H 500 V 0 H 0 Z"
         transform="translate(-295.41211,-405.37011)"
         id="path151" />
    </clipPath>
    <clipPath
       clipPathUnits="userSpaceOnUse"
       id="clipPath153">
      <path
         d="M 0,500 H 500 V 0 H 0 Z"
         transform="translate(-244.62351,-67.989299)"
         id="path153" />
    </clipPath>
    <clipPath
       clipPathUnits="userSpaceOnUse"
       id="clipPath155">
      <path
         d="M 0,500 H 500 V 0 H 0 Z"
         transform="translate(-239.4253,-67.948199)"
         id="path155" />
    </clipPath>
    <linearGradient
       x1="0"
       y1="0"
       x2="1"
       y2="0"
       gradientUnits="userSpaceOnUse"
       gradientTransform="matrix(-6.9407268,15.948905,15.948905,6.9407268,227.93106,47.661682)"
       spreadMethod="pad"
       id="linearGradient156">
      <stop
         style="stop-color:#0040ff;stop-opacity:1;"
         offset="0"
         id="stop155" />
      <stop
         style="stop-color:#748cff;stop-opacity:1;"
         offset="1"
         id="stop156" />
    </linearGradient>
    <clipPath
       clipPathUnits="userSpaceOnUse"
       id="clipPath158">
      <path
         d="M 0,500 H 500 V 0 H 0 Z"
         transform="translate(-244.03321,-54.510704)"
         id="path158" />
    </clipPath>
    <linearGradient
       x1="0"
       y1="0"
       x2="1"
       y2="0"
       gradientUnits="userSpaceOnUse"
       gradientTransform="matrix(24.23068,0,0,-24.23068,262.3006,59.283634)"
       spreadMethod="pad"
       id="linearGradient159">
      <stop
         style="stop-color:#0040ff;stop-opacity:1;"
         offset="0"
         id="stop158" />
      <stop
         style="stop-color:#748cff;stop-opacity:1;"
         offset="1"
         id="stop159" />
    </linearGradient>
    <clipPath
       clipPathUnits="userSpaceOnUse"
       id="clipPath161">
      <path
         d="M 0,500 H 500 V 0 H 0 Z"
         transform="translate(-285.2383,-51.899399)"
         id="path161" />
    </clipPath>
    <clipPath
       clipPathUnits="userSpaceOnUse"
       id="clipPath163">
      <path
         d="M 0,500 H 500 V 0 H 0 Z"
         transform="translate(-240.01461,-213.41411)"
         id="path163" />
    </clipPath>
    <clipPath
       clipPathUnits="userSpaceOnUse"
       id="clipPath165">
      <path
         d="M 0,500 H 500 V 0 H 0 Z"
         transform="translate(-275.16111,-67.969702)"
         id="path165" />
    </clipPath>
    <linearGradient
       x1="0"
       y1="0"
       x2="1"
       y2="0"
       gradientUnits="userSpaceOnUse"
       gradientTransform="matrix(-12.108669,5.1683345,5.1683345,12.108669,209.52754,254.91812)"
       spreadMethod="pad"
       id="linearGradient166">
      <stop
         style="stop-color:#0040ff;stop-opacity:1;"
         offset="0"
         id="stop165" />
      <stop
         style="stop-color:#748cff;stop-opacity:1;"
         offset="1"
         id="stop166" />
    </linearGradient>
    <clipPath
       clipPathUnits="userSpaceOnUse"
       id="clipPath168">
      <path
         d="M 0,500 H 500 V 0 H 0 Z"
         transform="translate(-203.42481,-282.47511)"
         id="path168" />
    </clipPath>
    <linearGradient
       x1="0"
       y1="0"
       x2="1"
       y2="0"
       gradientUnits="userSpaceOnUse"
       gradientTransform="matrix(-7.8755736,90.962875,90.962875,7.8755736,250.6532,217.62428)"
       spreadMethod="pad"
       id="linearGradient169">
      <stop
         style="stop-color:#0040ff;stop-opacity:1;"
         offset="0"
         id="stop168" />
      <stop
         style="stop-color:#748cff;stop-opacity:1;"
         offset="1"
         id="stop169" />
    </linearGradient>
    <clipPath
       clipPathUnits="userSpaceOnUse"
       id="clipPath171">
      <path
         d="M 0,500 H 500 V 0 H 0 Z"
         transform="translate(-274.5703,-247.458)"
         id="path171" />
    </clipPath>
    <clipPath
       clipPathUnits="userSpaceOnUse"
       id="clipPath173">
      <path
         d="M 0,500 H 500 V 0 H 0 Z"
         transform="translate(-261.1621,-277.479)"
         id="path173" />
    </clipPath>
    <clipPath
       clipPathUnits="userSpaceOnUse"
       id="clipPath174">
      <path
         d="M 230.328,291.234 H 265.1 v -50.967 h -34.772 z"
         transform="translate(-265.10061,-291.23391)"
         id="path174" />
    </clipPath>
    <clipPath
       clipPathUnits="userSpaceOnUse"
       id="clipPath176">
      <path
         d="M 0,500 H 500 V 0 H 0 Z"
         transform="matrix(1.3333333,0,0,-1.3333333,0,666.66667)"
         id="path176" />
    </clipPath>
    <linearGradient
       x1="0"
       y1="0"
       x2="1"
       y2="0"
       gradientUnits="userSpaceOnUse"
       gradientTransform="matrix(-5.7097793,22.839117,22.839117,5.7097793,233.3624,322.26172)"
       spreadMethod="pad"
       id="linearGradient177">
      <stop
         style="stop-opacity:1;stop-color:#1f3a65"
         offset="0"
         id="stop176" />
      <stop
         style="stop-opacity:1;stop-color:#294a7a"
         offset="1"
         id="stop177" />
    </linearGradient>
    <clipPath
       clipPathUnits="userSpaceOnUse"
       id="clipPath179">
      <path
         d="M 0,500 H 500 V 0 H 0 Z"
         transform="translate(-253.708,-308.68601)"
         id="path179" />
    </clipPath>
    <clipPath
       clipPathUnits="userSpaceOnUse"
       id="clipPath181">
      <path
         d="M 0,500 H 500 V 0 H 0 Z"
         transform="translate(-252.6328,-305.62651)"
         id="path181" />
    </clipPath>
    <clipPath
       clipPathUnits="userSpaceOnUse"
       id="clipPath183">
      <path
         d="M 0,500 H 500 V 0 H 0 Z"
         transform="translate(-250.99171,-314.82671)"
         id="path183" />
    </clipPath>
    <clipPath
       clipPathUnits="userSpaceOnUse"
       id="clipPath185">
      <path
         d="M 0,500 H 500 V 0 H 0 Z"
         transform="translate(-238.2739,-301.19191)"
         id="path185" />
    </clipPath>
    <clipPath
       clipPathUnits="userSpaceOnUse"
       id="clipPath187">
      <path
         d="M 0,500 H 500 V 0 H 0 Z"
         transform="translate(-221.686,-328.17821)"
         id="path187" />
    </clipPath>
    <clipPath
       clipPathUnits="userSpaceOnUse"
       id="clipPath189">
      <path
         d="M 0,500 H 500 V 0 H 0 Z"
         transform="translate(-224.03031,-248.49801)"
         id="path189" />
    </clipPath>
    <clipPath
       clipPathUnits="userSpaceOnUse"
       id="clipPath191">
      <path
         d="M 0,500 H 500 V 0 H 0 Z"
         transform="translate(-222.92871,-248.49801)"
         id="path191" />
    </clipPath>
    <clipPath
       clipPathUnits="userSpaceOnUse"
       id="clipPath193">
      <path
         d="M 0,500 H 500 V 0 H 0 Z"
         transform="translate(-213.811,-265.6836)"
         id="path193" />
    </clipPath>
    <clipPath
       clipPathUnits="userSpaceOnUse"
       id="clipPath195">
      <path
         d="M 0,500 H 500 V 0 H 0 Z"
         transform="translate(-232.19191,-263.3916)"
         id="path195" />
    </clipPath>
    <linearGradient
       x1="0"
       y1="0"
       x2="1"
       y2="0"
       gradientUnits="userSpaceOnUse"
       gradientTransform="matrix(-7.8755574,90.962685,90.962685,7.8755574,256.99673,218.17371)"
       spreadMethod="pad"
       id="linearGradient196">
      <stop
         style="stop-color:#0040ff;stop-opacity:1;"
         offset="0"
         id="stop195" />
      <stop
         style="stop-color:#748cff;stop-opacity:1;"
         offset="1"
         id="stop196" />
    </linearGradient>
    <clipPath
       clipPathUnits="userSpaceOnUse"
       id="clipPath198">
      <path
         d="M 0,500 H 500 V 0 H 0 Z"
         transform="translate(-239.1187,-259.0581)"
         id="path198" />
    </clipPath>
  </defs>
  <sodipodi:namedview
     id="namedview1"
     pagecolor="#ffffff"
     bordercolor="#000000"
     borderopacity="0.25"
     inkscape:showpageshadow="2"
     inkscape:pageopacity="0.0"
     inkscape:pagecheckerboard="0"
     inkscape:deskcolor="#d1d1d1"
     inkscape:zoom="1.194"
     inkscape:cx="334.58961"
     inkscape:cy="333.33333"
     inkscape:window-width="1920"
     inkscape:window-height="1000"
     inkscape:window-x="0"
     inkscape:window-y="0"
     inkscape:window-maximized="1"
     inkscape:current-layer="layer-MC1" />
  <g
     id="layer-MC0"
     inkscape:groupmode="layer"
     inkscape:label="BACKGROUND">
    <path
       id="path1"
       d="M 0,0 H 500 V 500 H 0 Z"
       style="fill:#ffffff;fill-opacity:1;fill-rule:nonzero;stroke:none"
       transform="matrix(1.3333333,0,0,-1.3333333,0,666.66667)" />
  </g>
  <g
     id="layer-MC1"
     inkscape:groupmode="layer"
     inkscape:label="OBJECTS">
    <path
       id="path2"
       d="m 0,0 c -0.118,-1.843 -0.271,-3.686 -0.461,-5.504 -0.083,-0.922 -0.188,-1.831 -0.295,-2.753 v -0.012 c -1.772,-15.169 -5.729,-29.475 -12.109,-41.973 v -0.011 c -0.531,-1.052 -1.086,-2.08 -1.665,-3.096 -4.548,-8.175 -10.196,-15.487 -17.024,-21.653 -0.614,-0.556 -1.228,-1.099 -1.854,-1.62 -5.989,-5.079 -12.841,-9.308 -20.591,-12.498 -0.909,-0.378 -1.819,-0.744 -2.752,-1.087 h -0.012 c -17.827,-6.615 -40.201,-7.95 -67.632,-2.02 -0.023,0 -0.046,0.013 -0.07,0.013 -0.945,0.2 -1.89,0.389 -2.824,0.543 -25.434,4.536 -44.347,-5.6 -64.43,-15.901 -0.732,-0.366 -1.453,-0.744 -2.185,-1.11 -24.206,-12.346 -50.514,-24.171 -92.227,-10.455 -64.371,21.181 -51.388,93.467 -27.324,145.009 0.378,0.826 0.768,1.641 1.158,2.457 5.15,10.738 10.75,20.507 16.172,28.611 4.335,6.498 7.797,13.302 10.656,20.237 0.378,0.909 0.744,1.819 1.098,2.74 14.33,36.775 13.09,76.503 38.583,92.026 0.649,0.414 1.323,0.804 2.008,1.158 3.603,1.925 7.702,3.39 12.404,4.347 12.534,2.552 23.189,0.272 32.475,-4.973 0.862,-0.496 1.713,-1.004 2.54,-1.548 19.527,-12.522 32.912,-38.169 45.41,-58.511 0.449,-0.756 0.91,-1.489 1.358,-2.221 9.947,-15.936 19.434,-28.045 31.153,-26.899 2.374,0.236 4.772,0.402 7.182,0.508 0.839,0.035 1.665,0.059 2.504,0.083 20.851,0.519 42.812,-3.603 61.513,-12.298 0.779,-0.355 1.547,-0.721 2.303,-1.099 17.07,-8.411 31.175,-20.744 38.842,-36.964 0.343,-0.709 0.661,-1.429 0.981,-2.15 C -1.146,22.126 0.756,11.66 0,0"
       style="fill:#669af3;fill-opacity:1;fill-rule:nonzero;stroke:none"
       transform="matrix(1.3333333,0,0,-1.3333333,555.34373,329.22587)"
       clip-path="url(#clipPath3)" />
    <path
       id="path4"
       d="m 0,0 c -2.517,-1.229 -5.009,-2.221 -7.49,-3 -0.874,-0.272 -1.737,-0.521 -2.599,-0.733 -43.213,-11.022 -78.901,42.941 -81.89,68.47 -3.024,25.848 30.348,18.075 62.375,2.965 1.003,-0.472 1.996,-0.945 2.988,-1.429 1.028,-0.508 2.067,-1.016 3.095,-1.536 C 10.938,47.407 47.619,23.225 0,0"
       style="fill:#669af3;fill-opacity:1;fill-rule:nonzero;stroke:none"
       transform="matrix(1.3333333,0,0,-1.3333333,476.10027,185.63867)"
       clip-path="url(#clipPath5)" />
    <g
       opacity="0.619995"
       id="g7"
       clip-path="url(#clipPath8)">
      <path
         d="m 0,0 c -0.023,0 -0.047,0.013 -0.07,0.013 -0.946,0.2 -1.891,0.389 -2.825,0.543 -6.591,15.9 -16.171,31.92 -29.237,37.719 -8.907,3.958 -18.677,2.73 -29.037,-3.673 -30.373,-18.772 -53.846,-29.344 -69.652,-19.894 -15.097,9.025 -21.028,36.444 -18.157,83.828 1.819,30.041 -2.245,53.786 -12.097,70.868 0.378,0.909 0.744,1.819 1.099,2.741 10.786,-17.614 15.263,-42.328 13.349,-73.751 -2.811,-46.415 2.752,-73.124 17.023,-81.654 15.641,-9.368 41.547,4.017 67.194,19.87 11.057,6.84 21.571,8.127 31.234,3.828 C -16.905,34.094 -6.769,16.764 0,0"
         style="fill:#ffffff;fill-opacity:1;fill-rule:nonzero;stroke:none"
         transform="matrix(1.3333333,0,0,-1.3333333,389.4844,452.19533)"
         clip-path="url(#clipPath6)"
         id="path7" />
    </g>
    <g
       opacity="0.619995"
       id="g10"
       clip-path="url(#clipPath11)">
      <path
         d="m 0,0 c -0.732,-0.366 -1.453,-0.744 -2.186,-1.11 -1.535,5.197 -4.099,10.217 -8.304,13.549 -6.084,4.82 -14.731,5.422 -25.706,1.795 -24.3,-8.045 -42.835,-7.288 -55.121,2.234 -13.739,10.643 -19.599,32.368 -17.413,64.548 1.595,23.508 -4.678,40.46 -13.006,52.427 0.378,0.827 0.768,1.642 1.157,2.457 8.978,-12.38 15.901,-30.148 14.212,-55.049 -2.138,-31.341 3.426,-52.381 16.503,-62.517 11.613,-9.014 29.427,-9.64 52.924,-1.855 11.79,3.899 21.181,3.155 27.926,-2.197 C -4.465,10.667 -1.677,5.422 0,0"
         style="fill:#ffffff;fill-opacity:1;fill-rule:nonzero;stroke:none"
         transform="matrix(1.3333333,0,0,-1.3333333,299.7188,472.65493)"
         clip-path="url(#clipPath9)"
         id="path10" />
    </g>
    <g
       opacity="0.619995"
       id="g13"
       clip-path="url(#clipPath14)">
      <path
         d="m 0,0 c -3.992,-30.219 0.556,-53.728 13.526,-69.888 4.443,-5.54 9.44,-9.592 14.259,-12.569 -0.909,-0.378 -1.819,-0.744 -2.752,-1.087 h -0.012 c -4.512,2.989 -9.12,6.935 -13.301,12.145 C -1.7,-54.72 -6.426,-30.597 -2.339,0.307 2.966,40.437 19.658,64.442 34.543,78.251 35.322,77.897 36.09,77.531 36.847,77.153 22.115,63.756 5.305,40.095 0,0"
         style="fill:#ffffff;fill-opacity:1;fill-rule:nonzero;stroke:none"
         transform="matrix(1.3333333,0,0,-1.3333333,446.29813,338.10933)"
         clip-path="url(#clipPath12)"
         id="path13" />
    </g>
    <g
       opacity="0.619995"
       id="g16"
       clip-path="url(#clipPath17)">
      <path
         d="m 0,0 c -3.414,-22.941 -0.567,-40.225 8.493,-51.341 2.363,-2.894 4.939,-5.092 7.443,-6.733 -0.615,-0.556 -1.229,-1.099 -1.855,-1.619 -2.505,1.725 -5.056,3.958 -7.419,6.864 -9.498,11.659 -12.521,29.545 -9.002,53.183 3.592,24.017 18.653,41.229 43.734,50.101 0.342,-0.709 0.661,-1.43 0.98,-2.15 C 17.743,39.728 3.496,23.497 0,0"
         style="fill:#ffffff;fill-opacity:1;fill-rule:nonzero;stroke:none"
         transform="matrix(1.3333333,0,0,-1.3333333,492.0248,351.79693)"
         clip-path="url(#clipPath15)"
         id="path16" />
    </g>
    <g
       opacity="0.619995"
       id="g19"
       clip-path="url(#clipPath20)">
      <path
         d="m 0,0 c -0.083,-0.922 -0.188,-1.831 -0.295,-2.753 v -0.012 c -4.985,-2.468 -8.695,-6.025 -11.081,-10.62 -4.855,-9.356 -3.532,-21.571 -1.028,-31.352 -0.012,-0.012 -0.012,-0.012 0,-0.012 -0.532,-1.052 -1.086,-2.079 -1.665,-3.096 -3.025,10.502 -5.08,24.608 0.59,35.547 C -10.632,-6.816 -6.119,-2.706 0,0"
         style="fill:#ffffff;fill-opacity:1;fill-rule:nonzero;stroke:none"
         transform="matrix(1.3333333,0,0,-1.3333333,554.7292,336.56507)"
         clip-path="url(#clipPath18)"
         id="path19" />
    </g>
    <g
       opacity="0.619995"
       id="g22"
       clip-path="url(#clipPath23)">
      <path
         d="m 0,0 c -1.264,-5.623 -3.083,-11.979 -5.682,-18.275 -9.581,-23.225 -25.446,-35.429 -45.977,-35.429 -0.816,0 -1.618,0.012 -2.445,0.048 -27.951,1.287 -44.017,44.855 -59.552,86.993 -7.619,20.65 -15.003,40.662 -23.378,54.72 0.649,0.413 1.323,0.803 2.008,1.157 8.553,-14.306 15.948,-34.377 23.579,-55.062 15.275,-41.417 31.07,-84.24 57.461,-85.445 33.443,-1.536 46.497,29.97 51.482,51.21 C -1.665,-0.047 -0.839,-0.023 0,0"
         style="fill:#ffffff;fill-opacity:1;fill-rule:nonzero;stroke:none"
         transform="matrix(1.3333333,0,0,-1.3333333,410.33853,217.37693)"
         clip-path="url(#clipPath21)"
         id="path22" />
    </g>
    <g
       opacity="0.619995"
       id="g25"
       clip-path="url(#clipPath26)">
      <path
         d="m 0,0 c -2.02,-0.366 -4.252,-0.603 -6.615,-0.603 -4.938,0 -10.478,1.04 -15.96,4.171 -14.436,8.245 -23.402,27.962 -26.734,58.712 0.863,-0.496 1.714,-1.004 2.54,-1.548 C -43.39,31.825 -34.884,13.326 -21.405,5.623 -14.353,1.595 -7.063,1.347 -1.358,2.221 -0.909,1.465 -0.448,0.732 0,0"
         style="fill:#ffffff;fill-opacity:1;fill-rule:nonzero;stroke:none"
         transform="matrix(1.3333333,0,0,-1.3333333,355.88667,182.29947)"
         clip-path="url(#clipPath24)"
         id="path25" />
    </g>
    <g
       opacity="0.619995"
       id="g28"
       clip-path="url(#clipPath29)">
      <path
         d="m 0,0 c -0.874,-0.272 -1.736,-0.52 -2.599,-0.732 -6.237,6.521 -12.995,19.633 -14.613,46.036 -0.614,10.065 -2.422,18.441 -4.902,25.399 1.004,-0.473 1.996,-0.945 2.988,-1.43 2.174,-6.733 3.71,-14.613 4.277,-23.827 C -13.195,18.358 -6.131,5.812 0,0"
         style="fill:#ffffff;fill-opacity:1;fill-rule:nonzero;stroke:none"
         transform="matrix(1.3333333,0,0,-1.3333333,466.11333,189.63933)"
         clip-path="url(#clipPath27)"
         id="path28" />
    </g>
    <path
       id="path30"
       d="m 0,0 c 0,-5.343 -43.043,-9.675 -96.139,-9.675 -53.096,0 -96.139,4.332 -96.139,9.675 0,5.344 43.043,9.676 96.139,9.676 C -43.043,9.676 0,5.344 0,0"
       style="fill:#e4ebf7;fill-opacity:1;fill-rule:nonzero;stroke:none"
       transform="matrix(1.3333333,0,0,-1.3333333,458.70307,597.76693)"
       clip-path="url(#clipPath31)" />
    <path
       id="path32"
       d="m 133.03,281.598 c 0,0 1.678,-1.146 4.69,-2.894 v 0 c 9.865,-5.741 34.034,-17.992 60.509,-17.838 v 0 c 0.837,0 1.677,0.023 2.516,0.058 v 0 c 0.944,0.036 1.89,0.083 2.835,0.154 v 0 c 2.54,0.189 5.08,0.497 7.643,0.934 v 0 l 3.32,25.469 -8.79,-0.425 -2.41,-0.119 -1.429,-0.07 -23.296,-1.147 -35.191,11.2 -5.033,1.606 c 0,0 -6.297,-4.406 -5.364,-16.928"
       transform="matrix(1.3333333,0,0,-1.3333333,0,666.66667)"
       style="fill:url(#linearGradient32);stroke:none" />
    <path
       id="path33"
       d="m 0,0 c 0,0 1.678,-1.146 4.69,-2.895 0.354,6.912 3.32,13.74 5.706,18.217 L 5.363,16.929 C 5.363,16.929 -0.933,12.522 0,0"
       style="fill:#fafcff;fill-opacity:1;fill-rule:nonzero;stroke:#0c6bf4;stroke-width:1.181;stroke-linecap:butt;stroke-linejoin:miter;stroke-miterlimit:10;stroke-dasharray:none;stroke-opacity:1"
       transform="matrix(1.3333333,0,0,-1.3333333,177.37373,291.20253)"
       clip-path="url(#clipPath34)" />
    <g
       opacity="0.470001"
       id="g36"
       clip-path="url(#clipPath37)">
      <path
         d="m 0,0 c 0.945,0.036 1.89,0.083 2.835,0.153 2.54,0.189 5.08,0.497 7.644,0.934 L 13.798,26.556 5.009,26.131 2.599,26.013 C 1.949,23.473 1.382,20.744 0.933,17.779 -0.036,11.459 -0.272,5.505 0,0"
         style="fill:#3150bc;fill-opacity:1;fill-rule:nonzero;stroke:none"
         transform="matrix(1.3333333,0,0,-1.3333333,267.65947,318.76693)"
         clip-path="url(#clipPath35)"
         id="path36" />
    </g>
    <path
       id="path38"
       d="m 0,0 -31.485,-5.04 -6.732,42.058 31.484,5.04 z"
       style="fill:#bac1cc;fill-opacity:1;fill-rule:nonzero;stroke:none"
       transform="matrix(1.3333333,0,0,-1.3333333,217.89453,312.80667)"
       clip-path="url(#clipPath39)" />
    <path
       id="path40"
       d="M 160.255,262.607 H 128.37 V 305.2 h 31.885 z"
       style="fill:#edf1f9;fill-opacity:1;fill-rule:nonzero;stroke:none"
       transform="matrix(1.3333333,0,0,-1.3333333,0,666.66667)"
       clip-path="url(#clipPath41)" />
    <path
       id="path42"
       d="m 0,0 c 0,-1.753 -1.421,-3.175 -3.175,-3.175 -1.753,0 -3.175,1.422 -3.175,3.175 0,1.753 1.422,3.175 3.175,3.175 C -1.421,3.175 0,1.753 0,0"
       style="fill:#f4d242;fill-opacity:1;fill-rule:nonzero;stroke:none"
       transform="matrix(1.3333333,0,0,-1.3333333,185.19267,271.72267)"
       clip-path="url(#clipPath43)" />
    <path
       id="path44"
       d="m 0,0 h -17.868 c -0.516,0 -0.935,0.419 -0.935,0.936 0,0.516 0.419,0.935 0.935,0.935 H 0 C 0.517,1.871 0.935,1.452 0.935,0.936 0.935,0.419 0.517,0 0,0"
       style="fill:#bac1cc;fill-opacity:1;fill-rule:nonzero;stroke:none"
       transform="matrix(1.3333333,0,0,-1.3333333,201.79693,285.14387)"
       clip-path="url(#clipPath45)" />
    <path
       id="path46"
       d="m 0,0 h -22.041 c -0.517,0 -0.935,0.418 -0.935,0.935 0,0.517 0.418,0.935 0.935,0.935 H 0 C 0.517,1.87 0.935,1.452 0.935,0.935 0.935,0.418 0.517,0 0,0"
       style="fill:#bac1cc;fill-opacity:1;fill-rule:nonzero;stroke:none"
       transform="matrix(1.3333333,0,0,-1.3333333,207.36133,291.7064)"
       clip-path="url(#clipPath47)" />
    <path
       id="path48"
       d="m 0,0 h -22.041 c -0.517,0 -0.935,0.418 -0.935,0.935 0,0.517 0.418,0.936 0.935,0.936 H 0 C 0.517,1.871 0.935,1.452 0.935,0.935 0.935,0.418 0.517,0 0,0"
       style="fill:#bac1cc;fill-opacity:1;fill-rule:nonzero;stroke:none"
       transform="matrix(1.3333333,0,0,-1.3333333,207.36133,297.7936)"
       clip-path="url(#clipPath49)" />
    <path
       id="path50"
       d="m 0,0 h -22.041 c -0.517,0 -0.935,0.419 -0.935,0.936 0,0.516 0.418,0.935 0.935,0.935 H 0 C 0.517,1.871 0.935,1.452 0.935,0.936 0.935,0.419 0.517,0 0,0"
       style="fill:#bac1cc;fill-opacity:1;fill-rule:nonzero;stroke:none"
       transform="matrix(1.3333333,0,0,-1.3333333,207.36133,303.52013)"
       clip-path="url(#clipPath51)" />
    <path
       id="path52"
       d="m 0,0 c 0,0 6.842,0.736 7.039,-1.134 0.197,-1.871 -4.135,-2.363 -4.135,-2.363 0,0 6.301,-0.342 6.497,-1.746 0.197,-1.404 -6.497,-2.684 -6.497,-2.684 0,0 5.366,0.039 5.489,-1.328 0.123,-1.367 -5.391,-2.302 -5.391,-2.302 0,0 4.234,-0.209 4.332,-1.391 0.099,-1.181 -6.891,-3.347 -8.269,-1.969 -1.378,1.379 0.492,3.941 -1.083,5.465 -1.575,1.525 -1.575,3.986 -0.689,5.069 C -1.821,-3.3 -4.773,-0.04 0,0"
       style="fill:#feb19e;fill-opacity:1;fill-rule:nonzero;stroke:none"
       transform="matrix(1.3333333,0,0,-1.3333333,169.76947,281.13733)"
       clip-path="url(#clipPath53)" />
    <path
       id="path54"
       d="m 0,0 13.781,-4.702 1.365,4.001 c 0.39,1.141 -0.223,2.388 -1.364,2.778 L 4.143,5.365 C 3.001,5.755 1.754,5.143 1.365,4.001 Z m 15.305,-7.805 -18.408,6.282 2.155,6.313 c 0.825,2.418 3.462,3.714 5.88,2.889 L 14.571,4.39 c 2.418,-0.826 3.714,-3.462 2.888,-5.88 z"
       style="fill:#593131;fill-opacity:1;fill-rule:nonzero;stroke:none"
       transform="matrix(1.3333333,0,0,-1.3333333,200.96227,433.44667)"
       clip-path="url(#clipPath55)" />
    <path
       id="path56"
       d="m 0,0 -38.922,13.28 c -3.744,1.278 -5.743,5.347 -4.466,9.091 L -35.046,46.819 17.433,28.914 9.091,4.466 C 7.814,0.723 3.744,-1.277 0,0"
       style="fill:#593131;fill-opacity:1;fill-rule:nonzero;stroke:none"
       transform="matrix(1.3333333,0,0,-1.3333333,217.30333,493.8972)"
       clip-path="url(#clipPath57)" />
    <path
       id="path58"
       d="m 0,0 -24.992,2.959 c -0.879,0.104 -1.727,0.393 -2.487,0.848 l -21.588,12.934 c -1.091,0.655 -1.578,1.982 -1.167,3.187 l 2.074,6.079 c 0.481,1.41 2.015,2.163 3.426,1.682 L 3.263,11.313 C 4.673,10.832 5.427,9.298 4.945,7.888 L 2.871,1.809 C 2.46,0.604 1.264,-0.149 0,0"
       style="fill:#754343;fill-opacity:1;fill-rule:nonzero;stroke:none"
       transform="matrix(1.3333333,0,0,-1.3333333,235.88213,460.20707)"
       clip-path="url(#clipPath59)" />
    <path
       id="path60"
       d="m 0,0 c 0,0 3.439,-9.473 1.52,-10.875 -1.92,-1.403 -5.464,3.839 -6.571,1.846 -1.108,-1.993 2.51,-5.759 -2.437,-6.055 -4.947,-0.295 -9.377,3.471 -8.86,8.713 0.517,5.242 4.747,8.504 4.737,10.085 l 1.022,3.278 11.371,-3.839 z"
       style="fill:#feb19e;fill-opacity:1;fill-rule:nonzero;stroke:none"
       transform="matrix(1.3333333,0,0,-1.3333333,225.30013,414.04427)"
       clip-path="url(#clipPath61)" />
    <path
       id="path62"
       d="m 207.537,255.845 c -1.429,-0.39 -3.048,-0.862 -4.796,-1.441 v 0 c -0.449,-0.153 -0.921,-0.307 -1.394,-0.473 v 0 c -0.968,-0.331 -1.973,-0.708 -3.012,-1.11 v 0 c -7.644,-2.953 -16.74,-7.655 -24.123,-14.909 v 0 c -10.999,-10.82 -15.286,-27.902 -16.87,-37.424 v 0 c -0.023,-0.131 -0.047,-0.261 -0.059,-0.39 v 0 c -0.661,-4.04 -0.827,-6.628 -0.827,-6.628 v 0 l 13.739,-4.394 2.895,6.061 0.047,0.105 13.644,28.506 14.401,3.533 6.178,1.511 1.004,0.249 7.336,1.795 6.013,1.476 -7.584,25.021 c 0,0 -2.575,-0.401 -6.592,-1.488"
       transform="matrix(1.3333333,0,0,-1.3333333,0,666.66667)"
       style="fill:url(#linearGradient62);stroke:none" />
    <g
       opacity="0.470001"
       id="g64"
       clip-path="url(#clipPath65)">
      <path
         d="m 0,0 c -0.449,-0.153 -0.922,-0.307 -1.394,-0.473 1.347,-10.572 4.371,-19.09 7.017,-24.89 l 7.336,1.795 6.013,1.477 -7.584,25.021 c 0,0 -2.575,-0.402 -6.592,-1.489 C 3.367,1.051 1.748,0.579 0,0"
         style="fill:#3150bc;fill-opacity:1;fill-rule:nonzero;stroke:none"
         transform="matrix(1.3333333,0,0,-1.3333333,270.3216,327.4616)"
         clip-path="url(#clipPath63)"
         id="path64" />
    </g>
    <path
       id="path66"
       d="m 0,0 c -0.662,-4.04 -0.827,-6.627 -0.827,-6.627 l 13.739,-4.394 2.894,6.06 0.048,0.106 C 8.375,-3.627 2.953,-1.441 0,0"
       style="fill:#0819ff;fill-opacity:1;fill-rule:nonzero;stroke:none"
       transform="matrix(1.3333333,0,0,-1.3333333,209.71093,399.86973)"
       clip-path="url(#clipPath67)" />
    <path
       id="path68"
       d="m 0,0 -12.578,-2.612 c -1.278,-0.265 -2.528,0.555 -2.794,1.833 l -5.614,27.037 c -0.266,1.277 0.554,2.528 1.832,2.793 l 12.579,2.613 c 1.277,0.265 2.528,-0.556 2.794,-1.833 L 1.833,2.793 C 2.099,1.516 1.277,0.265 0,0"
       style="fill:#23406d;fill-opacity:1;fill-rule:nonzero;stroke:none"
       transform="matrix(1.3333333,0,0,-1.3333333,509.63667,287.99867)"
       clip-path="url(#clipPath69)" />
    <path
       id="path70"
       d="m 0,0 -12.904,-2.68 -4.598,22.142 c -0.185,0.887 0.385,1.755 1.273,1.939 l 9.692,2.014 c 0.887,0.184 1.755,-0.386 1.938,-1.273 z"
       style="fill:#a8afba;fill-opacity:1;fill-rule:nonzero;stroke:none"
       transform="matrix(1.3333333,0,0,-1.3333333,508.29427,280.44333)"
       clip-path="url(#clipPath71)" />
    <path
       id="path72"
       d="m 0,0 3.175,1.102 c 0,0 2.64,-1.388 6.858,0.564 L 7.474,13.989 c 0,0 4.414,3.067 4.339,4.912 -0.074,1.846 -8.711,1.403 -12.182,-7.014 l -3.839,-1.624 z"
       style="fill:#feb19e;fill-opacity:1;fill-rule:nonzero;stroke:none"
       transform="matrix(1.3333333,0,0,-1.3333333,474.71747,286.222)"
       clip-path="url(#clipPath73)" />
    <path
       id="path74"
       d="m 346.585,296.92 -35.192,-11.2 -23.297,1.147 -1.429,0.07 -2.409,0.119 -8.79,0.425 3.32,-25.469 c 2.564,-0.437 5.103,-0.745 7.643,-0.934 v 0 c 0.945,-0.071 1.89,-0.118 2.835,-0.154 v 0 c 0.839,-0.035 1.678,-0.058 2.516,-0.058 v 0 c 26.474,-0.154 50.645,12.097 60.508,17.838 v 0 c 3.013,1.748 4.69,2.894 4.69,2.894 v 0 c 0.934,12.522 -5.363,16.928 -5.363,16.928 v 0 z"
       transform="matrix(1.3333333,0,0,-1.3333333,0,666.66667)"
       style="fill:url(#linearGradient74);stroke:none" />
    <g
       opacity="0.470001"
       id="g76"
       clip-path="url(#clipPath77)">
      <path
         d="m 0,0 c -0.945,0.036 -1.891,0.083 -2.835,0.153 -2.54,0.189 -5.08,0.497 -7.644,0.934 l -3.319,25.469 8.789,-0.425 2.409,-0.118 c 0.651,-2.54 1.217,-5.269 1.666,-8.234 C 0.035,11.459 0.271,5.505 0,0"
         style="fill:#0819ff;fill-opacity:1;fill-rule:nonzero;stroke:none"
         transform="matrix(1.3333333,0,0,-1.3333333,385.6888,318.76693)"
         clip-path="url(#clipPath75)"
         id="path76" />
    </g>
    <path
       id="path78"
       d="m 0,0 -5.032,-1.607 c 2.386,-4.477 5.351,-11.305 5.705,-18.216 3.013,1.748 4.69,2.894 4.69,2.894 C 6.297,-4.407 0,0 0,0"
       style="fill:#0819ff;fill-opacity:1;fill-rule:nonzero;stroke:none"
       transform="matrix(1.3333333,0,0,-1.3333333,468.82293,268.6308)"
       clip-path="url(#clipPath79)" />
    <path
       id="path80"
       d="m 0,0 v 0 c 0.331,-0.775 -0.029,-1.673 -0.806,-2.003 l -16.073,-6.852 -1.197,2.809 16.073,6.852 C -1.228,1.137 -0.33,0.775 0,0"
       style="fill:#a1a7af;fill-opacity:1;fill-rule:nonzero;stroke:none"
       transform="matrix(1.3333333,0,0,-1.3333333,449.43747,422.1888)"
       clip-path="url(#clipPath81)" />
    <path
       id="path82"
       d="m 0,0 c 1.923,-4.51 -0.177,-9.707 -4.676,-11.625 -4.499,-1.918 -9.702,0.166 -11.625,4.676 -1.917,4.499 0.178,9.707 4.677,11.625 C -7.125,6.594 -1.918,4.499 0,0 m -18.289,-7.797 c 2.391,-5.607 8.869,-8.214 14.466,-5.828 5.596,2.386 8.202,8.865 5.812,14.473 -2.385,5.596 -8.865,8.202 -14.462,5.816 -5.595,-2.386 -8.202,-8.864 -5.816,-14.461"
       style="fill:#bac1cc;fill-opacity:1;fill-rule:nonzero;stroke:none"
       transform="matrix(1.3333333,0,0,-1.3333333,424.44013,432.836)"
       clip-path="url(#clipPath83)" />
    <path
       id="path84"
       d="m 0,0 1.104,-3.32 c 0,0 0.285,-3.637 0.125,-5.456 -0.16,-1.82 -1.506,-4.892 0.268,-5.329 1.774,-0.438 1.394,-4.316 5.226,-3.442 3.832,0.874 9.635,4.37 9.493,7.485 -0.143,3.115 -4.715,8.744 -4.715,8.744 l -0.668,2.951 z"
       style="fill:#feb19e;fill-opacity:1;fill-rule:nonzero;stroke:none"
       transform="matrix(1.3333333,0,0,-1.3333333,427.7916,411.80853)"
       clip-path="url(#clipPath85)" />
    <path
       id="path86"
       d="m 268.298,232.312 6.012,-1.476 7.337,-1.795 1.004,-0.249 6.178,-1.511 14.401,-3.533 13.644,-28.506 0.047,-0.105 2.894,-6.061 13.739,4.394 c 0,0 -0.164,2.588 -0.827,6.628 v 0 c -0.011,0.129 -0.035,0.259 -0.058,0.39 v 0 c -1.583,9.522 -5.872,26.604 -16.87,37.424 v 0 c -7.383,7.254 -16.48,11.956 -24.123,14.909 v 0 c -1.039,0.402 -2.043,0.779 -3.012,1.11 v 0 c -0.472,0.166 -0.946,0.32 -1.395,0.473 v 0 c -1.748,0.579 -3.366,1.051 -4.795,1.441 v 0 c -4.017,1.087 -6.592,1.488 -6.592,1.488 v 0 z"
       transform="matrix(1.3333333,0,0,-1.3333333,0,666.66667)"
       style="fill:url(#linearGradient86);stroke:none" />
    <g
       opacity="0.470001"
       id="g88"
       clip-path="url(#clipPath89)">
      <path
         d="m 0,0 c 0.449,-0.153 0.922,-0.307 1.395,-0.473 -1.347,-10.572 -4.372,-19.09 -7.018,-24.89 l -7.336,1.795 -6.013,1.477 7.584,25.021 c 0,0 2.575,-0.402 6.592,-1.489 C -3.366,1.051 -1.748,0.579 0,0"
         style="fill:#0819ff;fill-opacity:1;fill-rule:nonzero;stroke:none"
         transform="matrix(1.3333333,0,0,-1.3333333,383.026,327.4616)"
         clip-path="url(#clipPath87)"
         id="path88" />
    </g>
    <path
       id="path90"
       d="m 0,0 0.047,-0.105 2.894,-6.061 13.74,4.395 c 0,0 -0.165,2.586 -0.827,6.626 C 12.9,3.414 7.478,1.229 0,0"
       style="fill:#0819ff;fill-opacity:1;fill-rule:nonzero;stroke:none"
       transform="matrix(1.3333333,0,0,-1.3333333,422.49867,406.34373)"
       clip-path="url(#clipPath91)" />
    <path
       id="path92"
       d="m 0,0 c 0,0 -6.075,2.666 -6.577,4.896 -0.502,2.229 -1.355,7.356 -3.097,7.696 -1.743,0.341 -0.735,-7.924 -0.735,-7.924 0,0 -0.465,7.853 -2.807,8.676 -2.342,0.823 -0.386,-9.712 -0.629,-9.356 -0.243,0.355 -1.361,7.981 -2.609,7.833 -1.249,-0.148 -1.683,-7.792 0.091,-11.532 1.775,-3.742 2.339,-7.066 2.339,-7.066 l 10.992,-0.725 z"
       style="fill:#f49d8c;fill-opacity:1;fill-rule:nonzero;stroke:none"
       transform="matrix(1.3333333,0,0,-1.3333333,264.3372,166.3724)"
       clip-path="url(#clipPath93)" />
    <path
       id="path94"
       d="m 0,0 c 0,0 5.35,3.201 6.86,10.687 1.015,5.022 -3.684,0.743 -5.218,-2.824 0,0 -8.01,0.475 -9.385,-7.329 z"
       style="fill:#feb19e;fill-opacity:1;fill-rule:nonzero;stroke:none"
       transform="matrix(1.3333333,0,0,-1.3333333,261.2884,176.31573)"
       clip-path="url(#clipPath95)" />
    <path
       id="path96"
       d="m 181.548,361.858 c -1.737,-9.498 -3.497,-27.006 3.19,-40.922 v 0 c 5.268,-10.951 13.987,-19.421 20.815,-24.842 v 0 c 0.153,-0.119 0.295,-0.225 0.436,-0.343 v 0 c 0.06,-0.048 0.107,-0.083 0.166,-0.131 v 0 c 5.434,-4.229 9.557,-6.473 9.557,-6.473 v 0 l 15.617,20.969 -5.162,3.425 -2.269,1.512 -1.323,0.875 -21.216,14.081 -3.178,31.565 -0.673,6.664 -14.425,0.531 c 0,0 -0.756,-2.646 -1.535,-6.911"
       transform="matrix(1.3333333,0,0,-1.3333333,0,666.66667)"
       style="fill:url(#linearGradient96);stroke:none" />
    <g
       opacity="0.470001"
       id="g98"
       clip-path="url(#clipPath99)">
      <path
         d="m 0,0 15.617,20.969 -5.162,3.426 -2.268,1.511 -1.323,0.875 C 2.351,24.252 -4.631,18.594 -9.557,6.474 -4.123,2.244 0,0 0,0"
         style="fill:#0819ff;fill-opacity:1;fill-rule:nonzero;stroke:none"
         transform="matrix(1.3333333,0,0,-1.3333333,287.61587,281.13733)"
         clip-path="url(#clipPath97)"
         id="path98" />
    </g>
    <path
       id="path100"
       d="M 0,0 C 6.415,0.593 12.377,0.212 16.632,-0.293 L 15.965,6.377 1.543,6.908 C 1.543,6.908 0.777,4.259 0,0"
       style="fill:#0819ff;fill-opacity:1;fill-rule:nonzero;stroke:none"
       transform="matrix(1.3333333,0,0,-1.3333333,242.05987,184.18227)"
       clip-path="url(#clipPath101)" />
    <path
       id="path102"
       d="m 0,0 c 0,4.871 -3.949,8.82 -8.82,8.82 -4.871,0 -8.836,-3.98 -8.82,-8.851 0.009,-2.419 0.991,-4.608 2.575,-6.196 1.233,-1.237 2.136,-2.764 2.592,-4.45 l 0.711,-2.63 h 5.782 l 0.673,2.491 c 0.466,1.722 1.398,3.276 2.671,4.527 C -1.009,-4.689 0,-2.462 0,0"
       style="fill:#f4d242;fill-opacity:1;fill-rule:nonzero;stroke:none"
       transform="matrix(1.3333333,0,0,-1.3333333,269.27533,117.834)"
       clip-path="url(#clipPath103)" />
    <path
       id="path104"
       d="m 0,0 c -0.363,0 -0.658,0.295 -0.658,0.658 0,0.363 0.295,0.658 0.658,0.658 0.362,0 0.658,-0.295 0.658,-0.658 C 0.658,0.295 0.362,0 0,0 m 0,1.806 c -0.633,0 -1.148,-0.515 -1.148,-1.148 0,-0.633 0.515,-1.148 1.148,-1.148 0.245,0 0.471,0.077 0.658,0.208 v -9.22 h 0.49 V 0.658 C 1.148,1.291 0.633,1.806 0,1.806"
       style="fill:#ffffff;fill-opacity:1;fill-rule:nonzero;stroke:none"
       transform="matrix(1.3333333,0,0,-1.3333333,254.8424,122.90693)"
       clip-path="url(#clipPath105)" />
    <path
       id="path106"
       d="m 0,0 c -0.363,0 -0.658,0.295 -0.658,0.658 0,0.363 0.295,0.658 0.658,0.658 0.363,0 0.658,-0.295 0.658,-0.658 C 0.658,0.295 0.363,0 0,0 m 0,1.806 c -0.633,0 -1.148,-0.515 -1.148,-1.148 l -0.055,-9.161 h 0.49 l 0.055,8.221 C -0.472,-0.413 -0.245,-0.49 0,-0.49 c 0.633,0 1.148,0.515 1.148,1.148 0,0.633 -0.515,1.148 -1.148,1.148"
       style="fill:#ffffff;fill-opacity:1;fill-rule:nonzero;stroke:none"
       transform="matrix(1.3333333,0,0,-1.3333333,259.3952,124.2396)"
       clip-path="url(#clipPath107)" />
    <path
       id="path108"
       d="M 0,0 V 0 C -1.663,0 -3.011,1.348 -3.011,3.011 V 3.714 H 3.011 V 3.011 C 3.011,1.348 1.663,0 0,0"
       style="fill:#383838;fill-opacity:1;fill-rule:nonzero;stroke:none"
       transform="matrix(1.3333333,0,0,-1.3333333,257.46613,139.9916)"
       clip-path="url(#clipPath109)" />
    <path
       id="path110"
       d="m 0,0 h -6.073 c -0.128,0 -0.232,0.104 -0.232,0.232 0,0.128 0.104,0.232 0.232,0.232 H 0 C 0.128,0.464 0.232,0.36 0.232,0.232 0.232,0.104 0.128,0 0,0"
       style="fill:#838689;fill-opacity:1;fill-rule:nonzero;stroke:none"
       transform="matrix(1.3333333,0,0,-1.3333333,261.50267,136.90173)"
       clip-path="url(#clipPath111)" />
    <path
       id="path112"
       d="m 0,0 h -6.074 c -0.128,0 -0.231,0.104 -0.231,0.231 0,0.128 0.103,0.232 0.231,0.232 H 0 C 0.127,0.463 0.231,0.359 0.231,0.231 0.231,0.104 0.127,0 0,0"
       style="fill:#838689;fill-opacity:1;fill-rule:nonzero;stroke:none"
       transform="matrix(1.3333333,0,0,-1.3333333,261.56507,138.2096)"
       clip-path="url(#clipPath113)" />
    <path
       id="path114"
       d="m 0,0 h -2.315 c -0.246,0 -0.445,0.199 -0.445,0.445 0,0.246 0.199,0.445 0.445,0.445 H 0 C 0.246,0.89 0.445,0.691 0.445,0.445 0.445,0.199 0.246,0 0,0"
       style="fill:#f4d242;fill-opacity:1;fill-rule:nonzero;stroke:none"
       transform="matrix(1.3333333,0,0,-1.3333333,243.2416,117.31387)"
       clip-path="url(#clipPath115)" />
    <path
       id="path116"
       d="M 0,0 -2.052,1.071 C -2.27,1.185 -2.354,1.454 -2.241,1.672 -2.127,1.89 -1.858,1.974 -1.64,1.86 L 0.412,0.789 C 0.63,0.675 0.714,0.406 0.601,0.188 0.487,-0.03 0.218,-0.114 0,0"
       style="fill:#f4d242;fill-opacity:1;fill-rule:nonzero;stroke:none"
       transform="matrix(1.3333333,0,0,-1.3333333,244.18747,111.7904)"
       clip-path="url(#clipPath117)" />
    <path
       id="path118"
       d="M 0,0 -2.052,-1.071 C -2.27,-1.185 -2.354,-1.454 -2.241,-1.672 -2.127,-1.89 -1.858,-1.974 -1.64,-1.86 l 2.052,1.071 C 0.63,-0.675 0.714,-0.406 0.601,-0.188 0.487,0.029 0.218,0.114 0,0"
       style="fill:#f4d242;fill-opacity:1;fill-rule:nonzero;stroke:none"
       transform="matrix(1.3333333,0,0,-1.3333333,244.38547,121.5768)"
       clip-path="url(#clipPath119)" />
    <path
       id="path120"
       d="m 0,0 -1.637,1.637 c -0.174,0.174 -0.174,0.455 0,0.629 0.174,0.174 0.456,0.174 0.63,0 L 0.63,0.629 C 0.804,0.456 0.804,0.174 0.63,0 0.456,-0.174 0.174,-0.174 0,0"
       style="fill:#f4d242;fill-opacity:1;fill-rule:nonzero;stroke:none"
       transform="matrix(1.3333333,0,0,-1.3333333,247.5176,107.21413)"
       clip-path="url(#clipPath121)" />
    <path
       id="path122"
       d="m 0,0 -0.799,2.173 c -0.084,0.231 0.034,0.486 0.265,0.571 0.23,0.085 0.486,-0.033 0.571,-0.264 L 0.835,0.307 C 0.92,0.077 0.802,-0.179 0.571,-0.264 0.341,-0.349 0.085,-0.23 0,0"
       style="fill:#f4d242;fill-opacity:1;fill-rule:nonzero;stroke:none"
       transform="matrix(1.3333333,0,0,-1.3333333,251.29293,104.30987)"
       clip-path="url(#clipPath123)" />
    <path
       id="path124"
       d="M 0,0 H 2.315 C 2.561,0 2.76,0.199 2.76,0.445 2.76,0.691 2.561,0.89 2.315,0.89 H 0 C -0.246,0.89 -0.445,0.691 -0.445,0.445 -0.445,0.199 -0.246,0 0,0"
       style="fill:#f4d242;fill-opacity:1;fill-rule:nonzero;stroke:none"
       transform="matrix(1.3333333,0,0,-1.3333333,271.9108,116.918)"
       clip-path="url(#clipPath125)" />
    <path
       id="path126"
       d="M 0,0 2.052,1.071 C 2.27,1.185 2.354,1.454 2.241,1.672 2.127,1.89 1.858,1.975 1.64,1.861 L -0.412,0.79 C -0.63,0.676 -0.714,0.407 -0.601,0.189 -0.487,-0.029 -0.218,-0.114 0,0"
       style="fill:#f4d242;fill-opacity:1;fill-rule:nonzero;stroke:none"
       transform="matrix(1.3333333,0,0,-1.3333333,270.9648,111.3952)"
       clip-path="url(#clipPath127)" />
    <path
       id="path128"
       d="M 0,0 2.052,-1.071 C 2.27,-1.185 2.354,-1.454 2.241,-1.672 2.127,-1.89 1.858,-1.974 1.64,-1.86 l -2.052,1.071 C -0.63,-0.675 -0.714,-0.406 -0.601,-0.188 -0.487,0.029 -0.218,0.114 0,0"
       style="fill:#f4d242;fill-opacity:1;fill-rule:nonzero;stroke:none"
       transform="matrix(1.3333333,0,0,-1.3333333,270.76693,121.18093)"
       clip-path="url(#clipPath129)" />
    <path
       id="path130"
       d="m 0,0 1.637,1.637 c 0.174,0.174 0.174,0.455 0,0.629 -0.174,0.174 -0.456,0.174 -0.63,0 L -0.629,0.629 C -0.803,0.456 -0.803,0.174 -0.629,0 -0.456,-0.174 -0.174,-0.174 0,0"
       style="fill:#f4d242;fill-opacity:1;fill-rule:nonzero;stroke:none"
       transform="matrix(1.3333333,0,0,-1.3333333,267.63413,106.8184)"
       clip-path="url(#clipPath131)" />
    <path
       id="path132"
       d="M 0,0 0.798,2.173 C 0.883,2.403 0.765,2.659 0.534,2.744 0.303,2.829 0.048,2.71 -0.037,2.48 L -0.836,0.307 C -0.92,0.076 -0.802,-0.18 -0.571,-0.264 -0.341,-0.349 -0.085,-0.231 0,0"
       style="fill:#f4d242;fill-opacity:1;fill-rule:nonzero;stroke:none"
       transform="matrix(1.3333333,0,0,-1.3333333,263.85933,103.914)"
       clip-path="url(#clipPath133)" />
    <path
       id="path134"
       d="M 0,0 V 2.315 C 0,2.561 0.199,2.76 0.445,2.76 0.691,2.76 0.891,2.561 0.891,2.315 V 0 c 0,-0.246 -0.2,-0.445 -0.446,-0.445 C 0.199,-0.445 0,-0.246 0,0"
       style="fill:#f4d242;fill-opacity:1;fill-rule:nonzero;stroke:none"
       transform="matrix(1.3333333,0,0,-1.3333333,256.92187,102.99933)"
       clip-path="url(#clipPath135)" />
    <path
       id="path136"
       d="m 0,0 c 0,0 6.075,2.666 6.577,4.896 0.502,2.229 1.356,7.356 3.098,7.696 1.742,0.341 0.734,-7.924 0.734,-7.924 0,0 0.466,7.853 2.807,8.676 2.342,0.823 0.387,-9.712 0.63,-9.356 0.243,0.355 1.36,7.981 2.608,7.833 1.249,-0.148 1.684,-7.792 -0.091,-11.533 -1.775,-3.741 -2.339,-7.065 -2.339,-7.065 L 3.032,-7.502 Z"
       style="fill:#f49d8c;fill-opacity:1;fill-rule:nonzero;stroke:none"
       transform="matrix(1.3333333,0,0,-1.3333333,389.38413,165.97853)"
       clip-path="url(#clipPath137)" />
    <path
       id="path138"
       d="m 0,0 c 0,0 -5.35,3.202 -6.86,10.688 -1.015,5.022 3.684,0.743 5.218,-2.825 0,0 8.009,0.476 9.385,-7.329 z"
       style="fill:#feb19e;fill-opacity:1;fill-rule:nonzero;stroke:none"
       transform="matrix(1.3333333,0,0,-1.3333333,392.4336,175.92253)"
       clip-path="url(#clipPath139)" />
    <path
       id="path140"
       d="m 292.503,368.238 -0.673,-6.664 -3.178,-31.565 -21.216,-14.081 -1.324,-0.875 -2.268,-1.512 -5.162,-3.425 15.616,-20.969 c 0,0 4.124,2.244 9.557,6.473 v 0 c 0.06,0.048 0.107,0.083 0.166,0.131 v 0 c 0.142,0.118 0.284,0.224 0.437,0.343 v 0 c 6.828,5.421 15.547,13.891 20.816,24.842 v 0 c 6.686,13.916 4.925,31.424 3.189,40.922 v 0 c -0.779,4.265 -1.535,6.911 -1.535,6.911 v 0 z"
       transform="matrix(1.3333333,0,0,-1.3333333,0,666.66667)"
       style="fill:url(#linearGradient140);stroke:none" />
    <g
       opacity="0.470001"
       id="g142"
       clip-path="url(#clipPath143)">
      <path
         d="m 0,0 -15.617,20.969 5.162,3.426 2.268,1.511 1.324,0.875 C -2.351,24.252 4.631,18.594 9.557,6.474 4.123,2.244 0,0 0,0"
         style="fill:#0819ff;fill-opacity:1;fill-rule:nonzero;stroke:none"
         transform="matrix(1.3333333,0,0,-1.3333333,365.73173,281.13733)"
         clip-path="url(#clipPath141)"
         id="path142" />
    </g>
    <path
       id="path144"
       d="m 0,0 -0.667,-6.67 c 4.255,0.505 10.218,0.886 16.632,0.293 -0.777,4.259 -1.543,6.908 -1.543,6.908 z"
       style="fill:#0819ff;fill-opacity:1;fill-rule:nonzero;stroke:none"
       transform="matrix(1.3333333,0,0,-1.3333333,390.00133,175.67973)"
       clip-path="url(#clipPath145)" />
    <path
       id="path146"
       d="m 0,0 c 0,-5.26 -4.265,-9.524 -9.524,-9.524 -5.26,0 -9.525,4.264 -9.525,9.524 0,5.26 4.265,9.524 9.525,9.524 C -4.265,9.524 0,5.26 0,0"
       style="fill:#efa245;fill-opacity:1;fill-rule:nonzero;stroke:none"
       transform="matrix(1.3333333,0,0,-1.3333333,405.62627,121.83133)"
       clip-path="url(#clipPath147)" />
    <path
       id="path148"
       d="m 0,0 c -0.92,0 -1.808,0.14 -2.643,0.401 -2.784,0.868 -4.986,3.069 -5.853,5.853 -0.261,0.836 -0.401,1.724 -0.401,2.643 0,0.307 0.015,0.61 0.045,0.909 0.366,3.585 2.868,6.547 6.209,7.588 0.835,0.26 1.723,0.401 2.643,0.401 4.906,0 8.897,-3.992 8.897,-8.898 C 8.897,3.991 4.906,0 0,0 m 0,19.603 c -5.912,0 -10.705,-4.793 -10.705,-10.706 0,-5.912 4.793,-10.705 10.705,-10.705 5.913,0 10.706,4.793 10.706,10.705 0,5.913 -4.793,10.706 -10.706,10.706"
       style="fill:#f4d242;fill-opacity:1;fill-rule:nonzero;stroke:none"
       transform="matrix(1.3333333,0,0,-1.3333333,392.92707,133.69467)"
       clip-path="url(#clipPath149)" />
    <path
       id="path150"
       d="M 0,0 V 2.484 C 1.22,2.274 1.22,1.517 1.22,1.242 1.22,0.967 1.22,0.21 0,0 m -2.653,5.271 c 0,0.274 0,1.031 1.219,1.242 V 4.028 C -2.653,4.239 -2.653,4.996 -2.653,5.271 M 0,3.93 V 6.513 C 1.22,6.302 1.22,5.545 1.22,5.271 H 2.653 C 2.653,6.777 1.676,7.748 0,7.958 V 8.991 H -1.434 V 7.958 c -1.675,-0.21 -2.653,-1.181 -2.653,-2.687 0,-1.507 0.978,-2.478 2.653,-2.688 V 0 c -1.219,0.21 -1.219,0.967 -1.219,1.242 h -1.434 c 0,-1.506 0.978,-2.477 2.653,-2.687 V -2.479 H 0 v 1.034 c 1.676,0.21 2.653,1.181 2.653,2.687 C 2.653,2.749 1.676,3.72 0,3.93"
       style="fill:#f4d242;fill-opacity:1;fill-rule:nonzero;stroke:none"
       transform="matrix(1.3333333,0,0,-1.3333333,393.8828,126.1732)"
       clip-path="url(#clipPath151)" />
    <path
       id="path152"
       d="m 0,0 h -22.445 c 0,0 -6.415,79.149 -4.135,148.258 H 1.772 L 5.935,88.368 C 5.935,88.368 0.591,30.419 0,0"
       style="fill:#1b3151;fill-opacity:1;fill-rule:nonzero;stroke:none"
       transform="matrix(1.3333333,0,0,-1.3333333,326.16467,576.01427)"
       clip-path="url(#clipPath153)" />
    <path
       id="path154"
       d="m 0,0 c -2.517,35.375 4.698,108.989 4.771,109.729 l 1.176,-0.116 C 5.874,108.874 -1.331,35.358 1.179,0.083 Z"
       style="fill:#23406d;fill-opacity:1;fill-rule:nonzero;stroke:none"
       transform="matrix(1.3333333,0,0,-1.3333333,319.23373,576.06907)"
       clip-path="url(#clipPath155)" />
    <path
       id="path156"
       d="m 215.586,61.196 c -1.677,-0.378 -3.154,-0.826 -4.441,-1.334 v 0 c -8.884,-3.473 -9.168,-9.511 -7.277,-9.592 v 0 c 2.162,-0.095 38.783,-0.591 39.87,1.571 v 0 c 0.224,0.448 0.307,1.417 0.295,2.669 v 0 c -0.059,4.714 -1.477,13.433 -1.477,13.433 v 0 l -18.405,0.047 c 0,0 0.296,-4.82 -8.565,-6.794"
       transform="matrix(1.3333333,0,0,-1.3333333,0,666.66667)"
       style="fill:url(#linearGradient156);stroke:none" />
    <path
       id="path157"
       d="m 0,0 c 0.012,-1.253 -0.071,-2.222 -0.295,-2.67 -1.087,-2.162 -37.708,-1.666 -39.871,-1.571 -1.89,0.082 -1.606,6.119 7.277,9.592 2.162,-0.414 4.49,-2.103 5.423,-7.088 0,0 19.043,-0.212 27.466,1.737"
       style="fill:#669af3;fill-opacity:1;fill-rule:nonzero;stroke:none"
       transform="matrix(1.3333333,0,0,-1.3333333,325.3776,593.98573)"
       clip-path="url(#clipPath158)" />
    <path
       id="path159"
       d="m 263.525,67.943 c 0,0 -2.658,-14.271 -0.141,-16.044 v 0 c 0.626,-0.436 2.067,-0.767 3.933,-0.968 v 0 c 5.635,-0.638 15.145,-0.26 17.921,0.968 v 0 c 1.913,0.839 1.489,2.848 0.119,4.809 v 0 c 0,0 -0.414,0.649 -1.205,1.465 v 0 c -0.06,0.07 -0.131,0.142 -0.202,0.212 v 0 c -1.111,1.146 -2.422,2.127 -3.579,2.658 v 0 c -3.555,1.63 -3.261,6.9 -3.261,6.9 v 0 z"
       transform="matrix(1.3333333,0,0,-1.3333333,0,666.66667)"
       style="fill:url(#linearGradient159);stroke:none" />
    <path
       id="path160"
       d="m 0,0 c -2.776,-1.229 -12.286,-1.606 -17.921,-0.969 -0.591,7.018 5.174,10.42 9.935,10.42 3.071,0 5.351,-1.642 6.698,-2.966 0.071,-0.07 0.142,-0.141 0.201,-0.212 C -0.296,5.458 0.118,4.809 0.118,4.809 1.488,2.848 1.913,0.839 0,0"
       style="fill:#669af3;fill-opacity:1;fill-rule:nonzero;stroke:none"
       transform="matrix(1.3333333,0,0,-1.3333333,380.31773,597.46747)"
       clip-path="url(#clipPath161)" />
    <path
       id="path162"
       d="m 0,0 19.376,-145.425 h 20.982 l -4.444,126.108 c 0,0 1.732,10.779 1.383,22.15 z"
       style="fill:#23406d;fill-opacity:1;fill-rule:nonzero;stroke:none"
       transform="matrix(1.3333333,0,0,-1.3333333,320.01947,382.11453)"
       clip-path="url(#clipPath163)" />
    <path
       id="path164"
       d="m 0,0 -1.182,0.039 c 1.381,40.645 -5.64,124.898 -5.711,125.743 1.173,12.815 -0.653,19.655 -0.671,19.723 l 1.139,0.313 c 0.077,-0.282 1.904,-7.088 0.709,-20.041 C -5.644,125.034 1.383,40.713 0,0"
       style="fill:#38659b;fill-opacity:1;fill-rule:nonzero;stroke:none"
       transform="matrix(1.3333333,0,0,-1.3333333,366.88147,576.0404)"
       clip-path="url(#clipPath165)" />
    <path
       id="path166"
       d="m 197.222,243.122 c 10.633,-6.202 14.867,5.611 14.867,5.611 v 0 l -13.216,27.922 c 0,0 -12.282,-27.331 -1.651,-33.533"
       transform="matrix(1.3333333,0,0,-1.3333333,0,666.66667)"
       style="fill:url(#linearGradient166);stroke:none" />
    <path
       id="path167"
       d="m 0,0 c 0,0 -1.034,3.47 3.987,4.504 5.021,1.034 7.162,-2.141 8.491,-5.169 z"
       style="fill:#feb19e;fill-opacity:1;fill-rule:nonzero;stroke:none"
       transform="matrix(1.3333333,0,0,-1.3333333,271.23307,290.0332)"
       clip-path="url(#clipPath168)" />
    <path
       id="path169"
       d="m 221.682,304.705 c -5.044,-3.686 -9.261,-13.09 -11.08,-17.649 v 0 c 2.823,-0.579 4.299,-2.966 5.304,-5.245 v 0 l -5.788,0.307 5.645,-27.182 0.143,-0.685 0.72,-12.819 1.418,-25.185 c 14.483,-15.063 59.268,0 59.268,0 v 0 l -2.742,31.211 c 0,0 -0.272,2.008 3.556,11.53 v 0 c 3.816,9.521 5.033,44.973 -15.333,50.808 v 0 c -5.989,1.711 -11.421,2.404 -16.28,2.403 v 0 c -11.685,0 -20.05,-4.006 -24.831,-7.494"
       transform="matrix(1.3333333,0,0,-1.3333333,0,666.66667)"
       style="fill:url(#linearGradient169);stroke:none" />
    <path
       id="path170"
       d="m 0,0 c 0,0 -0.614,-16.646 -15.771,-21.17 -15.156,-4.524 -27.265,13.585 -29.828,15.038 -2.127,1.194 -9.782,0.414 -12.345,0.107 l -0.721,12.817 -0.142,0.686 12.783,2.397 19.338,-18.251 z"
       style="fill:#3150bc;fill-opacity:1;fill-rule:nonzero;stroke:none"
       transform="matrix(1.3333333,0,0,-1.3333333,366.09373,336.72267)"
       clip-path="url(#clipPath171)" />
    <path
       id="path172"
       d="m 0,0 c 0,0 -16.229,-5.019 -38.59,0 v -22.101 c 0,0 24.414,-5.168 42.528,0 z"
       style="fill:#a9d0ff;fill-opacity:1;fill-rule:nonzero;stroke:none"
       transform="matrix(1.3333333,0,0,-1.3333333,348.21613,296.69467)"
       clip-path="url(#clipPath173)" />
    <g
       opacity="0.470001"
       id="g175"
       clip-path="url(#clipPath176)">
      <path
         d="m 0,0 c 0,0 -11.155,-42.945 -29.598,-29.236 l -5.174,-5.745 25.74,-15.985 z"
         style="fill:#3150bc;fill-opacity:1;fill-rule:nonzero;stroke:none"
         transform="matrix(1.3333333,0,0,-1.3333333,353.46747,278.3548)"
         clip-path="url(#clipPath174)"
         id="path175" />
    </g>
    <path
       id="path177"
       d="m 236.236,350.475 c 0,0 -9.923,0 -15.682,-6.201 v 0 c -3.574,-3.849 -6.521,-2.864 -8.633,-1.881 v 0 c -1.29,0.602 -2.269,1.204 -2.885,0.7 v 0 c -1.582,-1.295 1.244,-5.397 3.781,-6.012 v 0 c -1.08,0.216 -6.044,1.141 -6.439,-0.043 v 0 c -0.443,-1.329 3.515,-9.737 12.523,-9.59 v 0 c 0,0 -1.152,-5.454 8.003,-11.075 v 0 c 9.155,-5.619 23.503,0 23.503,0 v 0 c 0,0 5.74,8.556 3.301,18.302 v 0 c -2.44,9.746 -7.903,7.531 -7.903,7.531 v 0 c 0,0 3.987,6.35 -2.806,9.451 v 0 c -2.328,1.063 -4.419,1.467 -5.969,1.467 v 0 c -2.97,0 -3.95,-1.484 -0.794,-2.649"
       transform="matrix(1.3333333,0,0,-1.3333333,0,666.66667)"
       style="fill:url(#linearGradient177);stroke:none" />
    <path
       id="path178"
       d="m 0,0 c 0,0 -0.343,-1.288 -1.075,-3.06 -1.713,-4.099 -5.564,-10.856 -12.368,-10.596 -2.328,0.082 -3.096,2.044 -3.332,4.536 -0.342,3.414 0.272,7.821 -0.803,9.864 l 6.616,8.518 4.394,5.658 0.744,0.957 c 0,0 1.761,-7.761 5.824,-15.877"
       style="fill:#feb19e;fill-opacity:1;fill-rule:nonzero;stroke:none"
       transform="matrix(1.3333333,0,0,-1.3333333,338.27733,255.08533)"
       clip-path="url(#clipPath179)" />
    <path
       id="path180"
       d="m 0,0 c -1.712,-4.099 -5.563,-10.856 -12.368,-10.597 -2.327,0.083 -3.095,2.044 -3.332,4.537 -0.342,3.414 0.272,7.82 -0.803,9.864 l 6.616,8.517 5.044,1.749 c 0,0 -0.138,-10.072 -8.088,-16.392 0,0 4.064,-1.439 9.47,4.011 C -2.335,2.825 -1.157,1.808 0,0"
       style="fill:#ff856a;fill-opacity:1;fill-rule:nonzero;stroke:none"
       transform="matrix(1.3333333,0,0,-1.3333333,336.84373,259.16467)"
       clip-path="url(#clipPath181)" />
    <path
       id="path182"
       d="m 0,0 0.723,-1.787 c 0,0 -2.292,-9.448 -10.266,-12.254 l 0.754,-9.007 c 0,0 11.724,5.684 13.866,18.014 0,0 -2.325,5.198 -5.077,5.034"
       style="fill:#23406d;fill-opacity:1;fill-rule:nonzero;stroke:none"
       transform="matrix(1.3333333,0,0,-1.3333333,334.6556,246.89773)"
       clip-path="url(#clipPath183)" />
    <path
       id="path184"
       d="m 0,0 -0.973,-9.292 c 0,0 -6.996,5.033 -4.673,15.414 0,0 2.654,-1.632 4.636,-1.263 0,0 -0.983,-1.832 1.01,-4.859"
       style="fill:#23406d;fill-opacity:1;fill-rule:nonzero;stroke:none"
       transform="matrix(1.3333333,0,0,-1.3333333,317.69853,265.07747)"
       clip-path="url(#clipPath185)" />
    <path
       id="path186"
       d="m 0,0 c 2.092,-8.896 4.563,-17.439 11.925,-21.446 1.897,-1.033 4.172,-0.978 6.011,0.156 3.573,2.204 9.007,7.253 8.267,17.352 0,0 2.444,-0.886 2.839,3.938 0.393,4.824 -1.265,5.66 -3.053,5.267 -1.788,-0.394 -1.624,-6.842 -1.624,-6.842 0,0 -6.3,1.353 -7.703,9.77 0,0 -2.658,-3.765 -4.947,-4.725 C 9.426,2.51 10.312,6.792 10.312,6.792 10.312,6.792 8.663,0.665 0,0"
       style="fill:#feb19e;fill-opacity:1;fill-rule:nonzero;stroke:none"
       transform="matrix(1.3333333,0,0,-1.3333333,295.58133,229.09573)"
       clip-path="url(#clipPath187)" />
    <path
       id="path188"
       d="m 0,0 -19.148,-1.358 c -1.546,-0.11 -2.888,1.054 -2.998,2.6 l -2.131,30.044 c -0.11,1.546 1.054,2.887 2.6,2.997 l 19.149,1.358 c 1.545,0.11 2.887,-1.054 2.997,-2.6 L 2.6,2.997 C 2.71,1.452 1.546,0.109 0,0"
       style="fill:#bac1cc;fill-opacity:1;fill-rule:nonzero;stroke:none"
       transform="matrix(1.3333333,0,0,-1.3333333,298.70707,335.336)"
       clip-path="url(#clipPath189)" />
    <path
       id="path190"
       d="m 0,0 -19.149,-1.358 c -1.545,-0.11 -2.887,1.054 -2.997,2.6 l -2.131,30.044 c -0.11,1.546 1.054,2.887 2.6,2.997 l 19.148,1.358 c 1.546,0.11 2.888,-1.054 2.997,-2.6 L 2.6,2.997 C 2.709,1.452 1.545,0.109 0,0"
       style="fill:#e1e7f4;fill-opacity:1;fill-rule:nonzero;stroke:none"
       transform="matrix(1.3333333,0,0,-1.3333333,297.23827,335.336)"
       clip-path="url(#clipPath191)" />
    <path
       id="path192"
       d="M 0,0 C 0.149,-2.098 -0.896,-3.881 -2.333,-3.983 -3.77,-4.085 -5.056,-2.467 -5.205,-0.37 -5.354,1.729 -4.309,3.512 -2.872,3.614 -1.435,3.716 -0.149,2.098 0,0"
       style="fill:#f8fbff;fill-opacity:1;fill-rule:nonzero;stroke:none"
       transform="matrix(1.3333333,0,0,-1.3333333,285.08133,312.42187)"
       clip-path="url(#clipPath193)" />
    <path
       id="path194"
       d="M 0,0 C 0,0 -1.226,7.722 -6.974,8.013 V 4.908 c 0,0 -3.755,-0.887 -6.044,1.698 -2.289,2.584 -4.725,4.547 -4.134,-2.599 0.59,-7.147 5.611,-10.617 11.001,-10.248 l 2.068,-1.772 5.907,5.995 z"
       style="fill:#feb19e;fill-opacity:1;fill-rule:nonzero;stroke:none"
       transform="matrix(1.3333333,0,0,-1.3333333,309.5892,315.47787)"
       clip-path="url(#clipPath195)" />
    <path
       id="path196"
       d="m 258.41,272.36 c -2.174,-13.585 -4.702,-25.198 -4.702,-25.198 v 0 l -14.59,11.896 -4.736,3.851 -8.459,-8.069 c 0,0 1.181,-2.185 3.285,-5.244 v 0 c 5.741,-8.388 18.31,-23.332 32.156,-17.992 v 0 c 18.9,7.288 24.996,59.658 10.23,61.819 v 0 c -0.43,0.064 -0.847,0.095 -1.252,0.095 v 0 c -6.619,-10e-4 -9.895,-8.355 -11.932,-21.158"
       transform="matrix(1.3333333,0,0,-1.3333333,0,666.66667)"
       style="fill:url(#linearGradient196);stroke:none" />
    <path
       id="path197"
       d="m 0,0 c -1.465,-2.327 -4.465,-6.131 -9.911,-9.462 -2.103,3.059 -3.284,5.245 -3.284,5.245 l 8.458,8.068 z"
       style="fill:#9eb2ef;fill-opacity:1;fill-rule:nonzero;stroke:none"
       transform="matrix(1.3333333,0,0,-1.3333333,318.82493,321.25587)"
       clip-path="url(#clipPath198)" />
  </g>
</svg>
